<?xml version="1.0" encoding="UTF-8" standalone="no"?>
<svg
   xmlns:dc="http://purl.org/dc/elements/1.1/"
   xmlns:cc="http://creativecommons.org/ns#"
   xmlns:rdf="http://www.w3.org/1999/02/22-rdf-syntax-ns#"
   xmlns:svg="http://www.w3.org/2000/svg"
   xmlns="http://www.w3.org/2000/svg"
   width="210mm"
   height="297mm"
   viewBox="0 0 210 297"
   version="1.1"
   id="svg753">
  <defs
     id="defs747" />
  <metadata
     id="metadata750">
    <rdf:RDF>
      <cc:Work
         rdf:about="">
        <dc:format>image/svg+xml</dc:format>
        <dc:type
           rdf:resource="http://purl.org/dc/dcmitype/StillImage" />
        <dc:title></dc:title>
      </cc:Work>
    </rdf:RDF>
  </metadata>
  <g
     transform="translate(0,-42.333335)"
     id="layer1">
    <g
       transform="matrix(0.68842409,0,0,-0.67736134,-171.67544,326.45775)"
       id="g1359">
      <path
         d="m 361.383,217.327 14.606,8.433 -14.606,8.432 -14.607,-8.432 -14.606,-8.433 14.606,-8.433 14.607,-8.433 14.606,8.433 -14.606,8.433"
         style="fill:#d9effb;fill-opacity:1;fill-rule:nonzero;stroke:none;stroke-width:0.1"
         id="path41" />
      <path
         d="m 361.383,238.333 v 61.842 l 14.606,8.432 v -61.841 l -14.606,-8.433"
         style="fill:#263c7a;fill-opacity:1;fill-rule:nonzero;stroke:none;stroke-width:0.1"
         id="path43" />
      <path
         d="m 361.383,300.175 -14.607,8.432 v -61.841 l 14.607,-8.433 v 61.842"
         style="fill:#4067b1;fill-opacity:1;fill-rule:nonzero;stroke:none;stroke-width:0.1"
         id="path45" />
      <path
         d="m 375.989,308.607 -14.606,8.434 -14.607,-8.434 14.607,-8.432 14.606,8.432"
         style="fill:#d9effb;fill-opacity:1;fill-rule:nonzero;stroke:none;stroke-width:0.1"
         id="path47" />
      <path
         d="m 375.989,235.521 -14.606,8.433 v -5.621 l 14.606,-8.434 v 5.622"
         style="fill:#8cd147;fill-opacity:1;fill-rule:nonzero;stroke:none;stroke-width:0.1"
         id="path49" />
      <path
         d="m 346.776,229.899 v 44.977 l 14.607,8.433 v -44.976 l -14.607,-8.434"
         style="fill:#c23222;fill-opacity:1;fill-rule:nonzero;stroke:none;stroke-width:0.1"
         id="path51" />
      <path
         d="m 346.776,274.876 -14.606,8.433 v -44.976 l 14.606,-8.434 v 44.977"
         style="fill:#dc4220;fill-opacity:1;fill-rule:nonzero;stroke:none;stroke-width:0.1"
         id="path53" />
      <path
         d="m 361.383,283.309 -14.607,8.432 -14.606,-8.432 14.606,-8.433 14.607,8.433"
         style="fill:#ef4b26;fill-opacity:1;fill-rule:nonzero;stroke:none;stroke-width:0.1"
         id="path55" />
      <path
         d="m 346.776,229.899 v 44.977 l 14.607,8.433 v -44.976 l -14.607,-8.434"
         style="fill:#4067b1;fill-opacity:1;fill-rule:nonzero;stroke:none;stroke-width:0.1"
         id="path57" />
      <path
         d="m 346.776,274.876 -14.606,8.433 v -44.976 l 14.606,-8.434 v 44.977"
         style="fill:#5f92d3;fill-opacity:1;fill-rule:nonzero;stroke:none;stroke-width:0.1"
         id="path59" />
      <path
         d="m 361.383,283.309 -14.607,8.432 -14.606,-8.432 14.606,-8.433 14.607,8.433"
         style="fill:#d9effb;fill-opacity:1;fill-rule:nonzero;stroke:none;stroke-width:0.1"
         id="path61" />
      <path
         d="m 361.383,221.467 v 25.299 l 14.606,8.432 v -25.299 l -14.606,-8.432"
         style="fill:#263c7a;fill-opacity:1;fill-rule:nonzero;stroke:none;stroke-width:0.1"
         id="path63" />
      <path
         d="m 361.383,246.766 -14.607,8.432 v -25.299 l 14.607,-8.432 v 25.299"
         style="fill:#4067b1;fill-opacity:1;fill-rule:nonzero;stroke:none;stroke-width:0.1"
         id="path65" />
      <path
         d="m 375.989,255.198 -14.606,8.434 -14.607,-8.434 14.607,-8.432 14.606,8.432"
         style="fill:#d9effb;fill-opacity:1;fill-rule:nonzero;stroke:none;stroke-width:0.1"
         id="path67" />
      <path
         d="m 548.099,187.349 -0.434,1.695 4.925,1.262 0.434,-1.696 -4.925,-1.261"
         style="fill:#5f92d3;fill-opacity:1;fill-rule:nonzero;stroke:none;stroke-width:0.1"
         id="path273" />
      <path
         d="m 545.588,184.898 -0.435,1.696 4.924,1.261 0.434,-1.695 -4.923,-1.262"
         style="fill:#5f92d3;fill-opacity:1;fill-rule:nonzero;stroke:none;stroke-width:0.1"
         id="path275" />
      <path
         d="m 543.076,182.448 -0.435,1.696 4.924,1.261 0.435,-1.695 -4.924,-1.262"
         style="fill:#5f92d3;fill-opacity:1;fill-rule:nonzero;stroke:none;stroke-width:0.1"
         id="path277" />
      <path
         d="m 540.563,179.998 -0.434,1.694 4.924,1.263 0.435,-1.695 -4.925,-1.262"
         style="fill:#5f92d3;fill-opacity:1;fill-rule:nonzero;stroke:none;stroke-width:0.1"
         id="path279" />
      <path
         d="m 422.735,64.025 -110.31,63.688 c -3.121,1.802 -2.73,4.948 0.874,7.028 l 75.113,43.353 c 3.603,2.08 9.054,2.306 12.175,0.505 L 510.896,114.91 c 3.121,-1.801 2.73,-4.948 -0.874,-7.028 L 434.91,64.5289 c -3.604,-2.0801 -9.055,-2.3051 -12.175,-0.5039"
         style="fill:#d9effb;fill-opacity:1;fill-rule:nonzero;stroke:none;stroke-width:0.1"
         id="path281" />
      <path
         d="m 514.977,240.19 -112.131,64.685 c -1.443,0.833 -2.77,0.962 -3.838,0.517 l 0.004,0.012 -0.183,-0.085 -0.045,-0.021 -3.65,-1.718 3.962,-1.973 -0.007,-0.218 0.034,-92.098 c 0.001,-4.608 2.853,-9.989 6.371,-12.019 l 109.14,-62.959 0.621,-5.137 3.985,1.901 c 1.312,0.772 2.144,2.515 2.143,4.998 l -0.035,92.097 c -0.002,4.609 -2.854,9.99 -6.371,12.018"
         style="fill:#263c7a;fill-opacity:1;fill-rule:nonzero;stroke:none;stroke-width:0.1"
         id="path283" />
      <path
         d="m 514.977,240.19 -112.131,64.685 c -1.443,0.833 -2.77,0.962 -3.838,0.517 l 0.004,0.012 -0.183,-0.085 -0.045,-0.021 -3.65,-1.718 3.962,-1.973 -0.007,-0.218 0.022,-60.699 51.03,-40.319 69.288,34.87 c -1.149,2.134 -2.718,3.95 -4.452,4.949"
         style="fill:#4067b1;fill-opacity:1;fill-rule:nonzero;stroke:none;stroke-width:0.1"
         id="path285" />
      <path
         d="m 516.85,238.742 -10.989,-4.623 8.297,-6.391 6.929,2.949 c -0.603,3.028 -2.201,6.071 -4.237,8.065"
         style="fill:#2e4b8d;fill-opacity:1;fill-rule:nonzero;stroke:none;stroke-width:0.1"
         id="path287" />
      <path
         d="m 511.327,129.664 -112.131,64.685 c -3.517,2.028 -6.369,7.409 -6.371,12.018 l -0.034,92.098 c -0.002,4.608 2.847,6.7 6.365,4.672 l 112.13,-64.685 c 3.517,-2.029 6.37,-7.41 6.371,-12.018 l 0.034,-92.098 c 0.002,-4.608 -2.847,-6.7 -6.364,-4.672"
         style="fill:#d9effb;fill-opacity:1;fill-rule:nonzero;stroke:none;stroke-width:0.1"
         id="path289" />
      <path
         d="m 507.596,136.515 -104.724,60.382 c -3.218,1.857 -5.828,6.781 -5.83,10.999 l -0.032,84.276 c -10e-4,4.218 2.607,6.132 5.825,4.275 l 104.724,-60.383 c 3.219,-1.856 5.829,-6.78 5.83,-10.998 l 0.032,-84.276 c 0.002,-4.218 -2.607,-6.132 -5.825,-4.275"
         style="fill:#ffffff;fill-opacity:1;fill-rule:nonzero;stroke:none;stroke-width:0.1"
         id="path291" />
      <path
         d="m 507.596,136.515 -104.724,60.382 c -3.218,1.857 -5.828,6.781 -5.83,10.999 l -0.032,84.276 c -10e-4,4.218 2.607,6.132 5.825,4.275 l 104.724,-60.383 c 3.219,-1.856 5.829,-6.78 5.83,-10.998 l 0.032,-84.276 c 0.002,-4.218 -2.607,-6.132 -5.825,-4.275"
         style="fill:#ffffff;fill-opacity:1;fill-rule:nonzero;stroke:none;stroke-width:0.1"
         id="path293" />
      <path
         d="m 513.001,126.804 -15.078,1.991 -97.336,56.196 c -3.121,1.802 -8.572,1.576 -12.175,-0.504 l -68.972,-39.806 -9.118,1.204 v -5.174 l 0.01,-0.001 c -0.061,-1.195 0.62,-2.346 2.093,-3.195 l 110.31,-63.688 c 3.12,-1.802 8.571,-1.5758 12.175,0.5039 l 75.112,43.3531 c 2.028,1.17 3.038,2.677 2.979,4.093 v 5.027"
         style="fill:#263c7a;fill-opacity:1;fill-rule:nonzero;stroke:none;stroke-width:0.1"
         id="path295" />
      <path
         d="m 439.866,162.313 -6.915,3.993 h -76.029 l -37.482,-21.625 -9.118,1.204 v -5.174 l 0.01,-0.001 c -0.061,-1.195 0.62,-2.346 2.093,-3.195 l 110.31,-63.688 c 1.649,-0.952 3.949,-1.3329 6.283,-1.1782 l 10.848,89.6642"
         style="fill:#4067b1;fill-opacity:1;fill-rule:nonzero;stroke:none;stroke-width:0.1"
         id="path297" />
      <path
         d="m 314.369,145.351 -4.047,0.534 v -5.174 l 0.01,-0.001 c -0.061,-1.195 0.62,-2.346 2.093,-3.195 l 1.944,-1.123 v 8.959"
         style="fill:#5f92d3;fill-opacity:1;fill-rule:nonzero;stroke:none;stroke-width:0.1"
         id="path299" />
      <path
         d="m 423.845,73.3109 c 2.958,-1.1218 7.188,-0.8769 10.345,0.6422 V 85.4922 H 423.845 V 73.3109"
         style="fill:#2e4b8d;fill-opacity:1;fill-rule:nonzero;stroke:none;stroke-width:0.1"
         id="path301" />
      <path
         d="m 422.735,78.9941 -110.31,63.6879 c -3.121,1.801 -2.73,4.948 0.874,7.029 l 75.113,43.351 c 3.603,2.082 9.054,2.307 12.175,0.505 L 510.896,129.88 c 3.121,-1.802 2.73,-4.949 -0.874,-7.029 L 434.91,79.4988 c -3.604,-2.0808 -9.055,-2.3066 -12.175,-0.5047"
         style="fill:#d9effb;fill-opacity:1;fill-rule:nonzero;stroke:none;stroke-width:0.1"
         id="path303" />
      <path
         d="M 510.022,124.74 434.91,81.3891 c -3.604,-2.0809 -9.055,-2.3071 -12.175,-0.5051 l -110.31,63.687 c -1.024,0.591 -1.662,1.327 -1.94,2.122 -0.488,-1.476 0.134,-2.968 1.94,-4.011 l 110.31,-63.6879 c 3.12,-1.8019 8.571,-1.5761 12.175,0.5047 l 75.112,43.3522 c 2.422,1.398 3.386,3.277 2.815,4.907 -0.356,-1.075 -1.296,-2.141 -2.815,-3.018"
         style="fill:#ffffff;fill-opacity:1;fill-rule:nonzero;stroke:none;stroke-width:0.1"
         id="path305" />
      <path
         d="m 359.342,163.766 -4.992,2.881 c -0.401,0.232 -0.35,0.636 0.113,0.904 l 5.89,3.4 c 0.463,0.268 1.163,0.297 1.564,0.066 l 4.991,-2.882 c 0.4,-0.232 0.351,-0.636 -0.112,-0.903 l -5.891,-3.401 c -0.463,-0.268 -1.163,-0.296 -1.563,-0.065"
         style="fill:#263c7a;fill-opacity:1;fill-rule:nonzero;stroke:none;stroke-width:0.1"
         id="path307" />
      <path
         d="m 367.049,159.316 -4.992,2.881 c -0.4,0.232 -0.349,0.636 0.113,0.904 l 5.891,3.401 c 0.463,0.267 1.163,0.296 1.564,0.064 l 4.991,-2.881 c 0.4,-0.232 0.351,-0.636 -0.112,-0.903 l -5.892,-3.401 c -0.463,-0.268 -1.162,-0.296 -1.563,-0.065"
         style="fill:#263c7a;fill-opacity:1;fill-rule:nonzero;stroke:none;stroke-width:0.1"
         id="path309" />
      <path
         d="m 374.757,154.866 -4.992,2.881 c -0.4,0.232 -0.35,0.636 0.113,0.903 l 5.891,3.402 c 0.463,0.266 1.162,0.296 1.564,0.064 l 4.991,-2.882 c 0.4,-0.231 0.351,-0.634 -0.112,-0.902 l -5.892,-3.401 c -0.463,-0.268 -1.163,-0.296 -1.563,-0.065"
         style="fill:#263c7a;fill-opacity:1;fill-rule:nonzero;stroke:none;stroke-width:0.1"
         id="path311" />
      <path
         d="m 385.417,158.541 -4.991,2.882 c -0.401,0.231 -0.351,0.635 0.112,0.902 l 4.945,2.856 c 0.463,0.266 1.163,0.296 1.564,0.064 l 4.991,-2.882 c 0.4,-0.231 0.35,-0.634 -0.112,-0.902 l -4.946,-2.856 c -0.463,-0.266 -1.162,-0.295 -1.563,-0.064"
         style="fill:#263c7a;fill-opacity:1;fill-rule:nonzero;stroke:none;stroke-width:0.1"
         id="path313" />
      <path
         d="m 393.125,154.091 -4.991,2.882 c -0.401,0.231 -0.351,0.635 0.112,0.902 l 4.945,2.855 c 0.463,0.267 1.163,0.296 1.564,0.065 l 4.991,-2.882 c 0.4,-0.23 0.35,-0.635 -0.112,-0.902 l -4.946,-2.856 c -0.463,-0.266 -1.163,-0.296 -1.563,-0.064"
         style="fill:#263c7a;fill-opacity:1;fill-rule:nonzero;stroke:none;stroke-width:0.1"
         id="path315" />
      <path
         d="m 400.833,149.641 -4.991,2.881 c -0.402,0.232 -0.351,0.636 0.112,0.903 l 4.945,2.855 c 0.463,0.268 1.162,0.296 1.564,0.065 l 4.991,-2.881 c 0.4,-0.232 0.35,-0.636 -0.112,-0.903 l -4.946,-2.855 c -0.463,-0.268 -1.163,-0.297 -1.563,-0.065"
         style="fill:#263c7a;fill-opacity:1;fill-rule:nonzero;stroke:none;stroke-width:0.1"
         id="path317" />
      <path
         d="m 408.54,145.19 -4.99,2.882 c -0.402,0.232 -0.351,0.636 0.111,0.903 l 4.945,2.855 c 0.463,0.268 1.163,0.296 1.564,0.066 l 4.991,-2.882 c 0.401,-0.232 0.35,-0.636 -0.112,-0.904 l -4.946,-2.854 c -0.462,-0.268 -1.162,-0.297 -1.563,-0.066"
         style="fill:#263c7a;fill-opacity:1;fill-rule:nonzero;stroke:none;stroke-width:0.1"
         id="path319" />
      <path
         d="m 416.248,140.74 -4.991,2.882 c -0.401,0.232 -0.351,0.636 0.112,0.903 l 4.945,2.855 c 0.463,0.267 1.163,0.297 1.564,0.065 l 4.991,-2.882 c 0.4,-0.231 0.35,-0.635 -0.112,-0.902 l -4.946,-2.855 c -0.463,-0.268 -1.163,-0.296 -1.563,-0.066"
         style="fill:#263c7a;fill-opacity:1;fill-rule:nonzero;stroke:none;stroke-width:0.1"
         id="path321" />
      <path
         d="m 423.956,136.291 -4.991,2.881 c -0.401,0.231 -0.351,0.636 0.112,0.903 l 4.945,2.855 c 0.463,0.267 1.163,0.297 1.564,0.065 l 4.991,-2.882 c 0.4,-0.231 0.35,-0.635 -0.112,-0.902 l -4.946,-2.856 c -0.463,-0.267 -1.163,-0.295 -1.563,-0.064"
         style="fill:#263c7a;fill-opacity:1;fill-rule:nonzero;stroke:none;stroke-width:0.1"
         id="path323" />
      <path
         d="m 431.664,131.841 -4.991,2.881 c -0.402,0.231 -0.351,0.635 0.112,0.903 l 4.945,2.855 c 0.463,0.267 1.162,0.296 1.564,0.065 l 4.991,-2.882 c 0.4,-0.231 0.35,-0.636 -0.112,-0.902 l -4.946,-2.856 c -0.463,-0.267 -1.163,-0.296 -1.563,-0.064"
         style="fill:#263c7a;fill-opacity:1;fill-rule:nonzero;stroke:none;stroke-width:0.1"
         id="path325" />
      <path
         d="m 439.371,127.391 -4.991,2.881 c -0.401,0.231 -0.35,0.635 0.112,0.903 l 4.945,2.855 c 0.463,0.267 1.163,0.296 1.564,0.065 l 4.991,-2.882 c 0.401,-0.232 0.351,-0.636 -0.112,-0.902 l -4.946,-2.856 c -0.462,-0.267 -1.162,-0.296 -1.563,-0.064"
         style="fill:#263c7a;fill-opacity:1;fill-rule:nonzero;stroke:none;stroke-width:0.1"
         id="path327" />
      <path
         d="m 447.079,122.94 -4.991,2.882 c -0.401,0.232 -0.351,0.635 0.112,0.903 l 4.945,2.855 c 0.463,0.267 1.163,0.296 1.564,0.065 l 4.991,-2.882 c 0.4,-0.232 0.351,-0.635 -0.112,-0.903 l -4.946,-2.855 c -0.463,-0.267 -1.163,-0.296 -1.563,-0.065"
         style="fill:#263c7a;fill-opacity:1;fill-rule:nonzero;stroke:none;stroke-width:0.1"
         id="path329" />
      <path
         d="m 454.787,118.49 -4.991,2.882 c -0.401,0.232 -0.351,0.636 0.112,0.902 l 4.945,2.856 c 0.463,0.266 1.163,0.296 1.564,0.064 l 4.991,-2.882 c 0.4,-0.23 0.351,-0.634 -0.112,-0.902 l -4.946,-2.855 c -0.463,-0.267 -1.163,-0.296 -1.563,-0.065"
         style="fill:#263c7a;fill-opacity:1;fill-rule:nonzero;stroke:none;stroke-width:0.1"
         id="path331" />
      <path
         d="m 396.774,160.647 -4.991,2.882 c -0.401,0.232 -0.351,0.636 0.112,0.903 l 4.946,2.855 c 0.462,0.268 1.162,0.296 1.563,0.066 l 4.991,-2.882 c 0.401,-0.232 0.35,-0.636 -0.112,-0.904 l -4.945,-2.854 c -0.463,-0.268 -1.163,-0.297 -1.564,-0.066"
         style="fill:#4067b1;fill-opacity:1;fill-rule:nonzero;stroke:none;stroke-width:0.1"
         id="path333" />
      <path
         d="m 388.951,165.164 -4.991,2.882 c -0.401,0.231 -0.351,0.636 0.112,0.902 l 4.945,2.856 c 0.463,0.267 1.163,0.296 1.564,0.064 l 4.991,-2.881 c 0.4,-0.231 0.351,-0.635 -0.112,-0.903 l -4.946,-2.855 c -0.462,-0.267 -1.163,-0.296 -1.563,-0.065"
         style="fill:#4067b1;fill-opacity:1;fill-rule:nonzero;stroke:none;stroke-width:0.1"
         id="path335" />
      <path
         d="m 381.115,169.688 -10.749,6.207 c -0.4,0.231 -0.351,0.635 0.112,0.902 l 4.946,2.855 c 0.462,0.268 1.163,0.296 1.563,0.065 l 10.749,-6.206 c 0.401,-0.232 0.351,-0.636 -0.112,-0.903 l -4.946,-2.855 c -0.461,-0.268 -1.162,-0.296 -1.563,-0.065"
         style="fill:#263c7a;fill-opacity:1;fill-rule:nonzero;stroke:none;stroke-width:0.1"
         id="path337" />
      <path
         d="m 386.593,175.189 -8.724,5.038 c -0.4,0.231 -0.351,0.634 0.112,0.902 l 4.946,2.855 c 0.462,0.267 1.163,0.296 1.563,0.065 l 8.724,-5.036 c 0.4,-0.232 0.35,-0.636 -0.113,-0.904 l -4.945,-2.854 c -0.463,-0.268 -1.163,-0.297 -1.563,-0.066"
         style="fill:#263c7a;fill-opacity:1;fill-rule:nonzero;stroke:none;stroke-width:0.1"
         id="path339" />
      <path
         d="m 404.481,156.197 -4.991,2.882 c -0.4,0.232 -0.35,0.636 0.112,0.903 l 4.946,2.855 c 0.462,0.267 1.163,0.297 1.563,0.065 l 4.991,-2.881 c 0.402,-0.232 0.351,-0.636 -0.112,-0.903 l -4.945,-2.855 c -0.462,-0.268 -1.162,-0.296 -1.564,-0.066"
         style="fill:#4067b1;fill-opacity:1;fill-rule:nonzero;stroke:none;stroke-width:0.1"
         id="path341" />
      <path
         d="m 412.189,151.748 -4.991,2.881 c -0.4,0.231 -0.351,0.636 0.112,0.903 l 4.946,2.855 c 0.463,0.267 1.163,0.297 1.563,0.065 l 4.991,-2.882 c 0.401,-0.231 0.351,-0.635 -0.112,-0.902 l -4.945,-2.856 c -0.463,-0.267 -1.163,-0.295 -1.564,-0.064"
         style="fill:#263c7a;fill-opacity:1;fill-rule:nonzero;stroke:none;stroke-width:0.1"
         id="path343" />
      <path
         d="m 419.897,147.298 -4.991,2.881 c -0.4,0.231 -0.351,0.635 0.112,0.903 l 4.946,2.855 c 0.463,0.267 1.163,0.296 1.563,0.065 l 4.991,-2.882 c 0.401,-0.231 0.351,-0.636 -0.112,-0.902 l -4.945,-2.856 c -0.463,-0.266 -1.163,-0.296 -1.564,-0.064"
         style="fill:#263c7a;fill-opacity:1;fill-rule:nonzero;stroke:none;stroke-width:0.1"
         id="path345" />
      <path
         d="m 427.605,142.848 -4.991,2.881 c -0.401,0.232 -0.351,0.635 0.112,0.903 l 4.946,2.855 c 0.463,0.267 1.162,0.296 1.563,0.065 l 4.991,-2.882 c 0.401,-0.232 0.35,-0.636 -0.112,-0.902 l -4.945,-2.856 c -0.463,-0.266 -1.163,-0.296 -1.564,-0.064"
         style="fill:#263c7a;fill-opacity:1;fill-rule:nonzero;stroke:none;stroke-width:0.1"
         id="path347" />
      <path
         d="m 435.312,138.397 -4.991,2.882 c -0.4,0.232 -0.35,0.635 0.112,0.903 l 4.946,2.855 c 0.463,0.267 1.163,0.296 1.563,0.065 l 4.991,-2.882 c 0.402,-0.232 0.351,-0.635 -0.112,-0.903 l -4.945,-2.855 c -0.463,-0.267 -1.162,-0.296 -1.564,-0.065"
         style="fill:#263c7a;fill-opacity:1;fill-rule:nonzero;stroke:none;stroke-width:0.1"
         id="path349" />
      <path
         d="m 443.02,133.947 -4.991,2.882 c -0.4,0.232 -0.351,0.636 0.112,0.902 l 4.946,2.856 c 0.463,0.267 1.163,0.296 1.563,0.064 l 4.991,-2.881 c 0.401,-0.231 0.351,-0.635 -0.112,-0.903 l -4.945,-2.855 c -0.463,-0.267 -1.163,-0.296 -1.564,-0.065"
         style="fill:#263c7a;fill-opacity:1;fill-rule:nonzero;stroke:none;stroke-width:0.1"
         id="path351" />
      <path
         d="m 450.728,129.497 -4.991,2.882 c -0.4,0.231 -0.351,0.636 0.112,0.902 l 4.946,2.856 c 0.463,0.267 1.163,0.296 1.563,0.064 l 4.991,-2.881 c 0.401,-0.231 0.351,-0.635 -0.112,-0.903 l -4.945,-2.855 c -0.463,-0.267 -1.163,-0.296 -1.564,-0.065"
         style="fill:#263c7a;fill-opacity:1;fill-rule:nonzero;stroke:none;stroke-width:0.1"
         id="path353" />
      <path
         d="m 458.436,125.047 -4.991,2.882 c -0.401,0.231 -0.351,0.635 0.112,0.902 l 4.946,2.856 c 0.463,0.267 1.162,0.295 1.563,0.065 l 4.991,-2.882 c 0.401,-0.231 0.35,-0.636 -0.112,-0.903 L 460,125.112 c -0.463,-0.267 -1.163,-0.297 -1.564,-0.065"
         style="fill:#263c7a;fill-opacity:1;fill-rule:nonzero;stroke:none;stroke-width:0.1"
         id="path355" />
      <path
         d="m 466.143,120.597 -4.991,2.882 c -0.4,0.231 -0.35,0.635 0.112,0.903 l 4.946,2.854 c 0.463,0.268 1.163,0.297 1.563,0.066 l 4.991,-2.882 c 0.402,-0.232 0.351,-0.636 -0.112,-0.902 l -4.945,-2.856 c -0.463,-0.267 -1.162,-0.296 -1.564,-0.065"
         style="fill:#263c7a;fill-opacity:1;fill-rule:nonzero;stroke:none;stroke-width:0.1"
         id="path357" />
      <path
         d="m 479.846,112.686 -10.89,6.288 c -0.401,0.231 -0.351,0.634 0.112,0.902 l 4.945,2.855 c 0.463,0.267 1.164,0.296 1.564,0.065 l 10.891,-6.287 c 0.4,-0.232 0.35,-0.636 -0.113,-0.904 l -4.945,-2.854 c -0.463,-0.268 -1.163,-0.297 -1.564,-0.065"
         style="fill:#263c7a;fill-opacity:1;fill-rule:nonzero;stroke:none;stroke-width:0.1"
         id="path359" />
      <path
         d="m 494.852,121.35 -9.191,5.306 c -0.401,0.232 -0.351,0.636 0.112,0.904 l 4.946,2.854 c 0.462,0.268 1.162,0.297 1.563,0.065 l 9.191,-5.307 c 0.401,-0.232 0.351,-0.635 -0.112,-0.902 l -4.945,-2.856 c -0.463,-0.267 -1.163,-0.296 -1.564,-0.064"
         style="fill:#263c7a;fill-opacity:1;fill-rule:nonzero;stroke:none;stroke-width:0.1"
         id="path361" />
      <path
         d="m 417.979,157.068 -4.991,2.882 c -0.4,0.232 -0.351,0.636 0.112,0.903 l 4.946,2.855 c 0.463,0.267 1.163,0.296 1.563,0.064 l 4.991,-2.881 c 0.402,-0.231 0.351,-0.635 -0.112,-0.903 l -4.945,-2.855 c -0.463,-0.267 -1.162,-0.296 -1.564,-0.065"
         style="fill:#263c7a;fill-opacity:1;fill-rule:nonzero;stroke:none;stroke-width:0.1"
         id="path363" />
      <path
         d="m 410.08,161.629 -4.991,2.882 c -0.401,0.231 -0.351,0.635 0.112,0.902 l 4.945,2.856 c 0.463,0.267 1.163,0.295 1.564,0.064 l 4.991,-2.881 c 0.401,-0.231 0.351,-0.636 -0.112,-0.903 l -4.946,-2.855 c -0.463,-0.267 -1.162,-0.297 -1.563,-0.065"
         style="fill:#263c7a;fill-opacity:1;fill-rule:nonzero;stroke:none;stroke-width:0.1"
         id="path365" />
      <path
         d="m 402.18,166.19 -4.991,2.881 c -0.4,0.232 -0.35,0.636 0.113,0.904 l 4.945,2.854 c 0.463,0.268 1.163,0.297 1.563,0.066 l 4.992,-2.882 c 0.4,-0.232 0.35,-0.636 -0.113,-0.903 l -4.945,-2.855 c -0.463,-0.268 -1.163,-0.296 -1.564,-0.065"
         style="fill:#4067b1;fill-opacity:1;fill-rule:nonzero;stroke:none;stroke-width:0.1"
         id="path367" />
      <path
         d="m 394.281,170.751 -4.991,2.882 c -0.401,0.23 -0.351,0.635 0.112,0.902 l 4.945,2.856 c 0.463,0.266 1.163,0.296 1.564,0.064 l 4.991,-2.882 c 0.4,-0.231 0.351,-0.636 -0.112,-0.902 l -4.946,-2.856 c -0.462,-0.266 -1.163,-0.295 -1.563,-0.064"
         style="fill:#263c7a;fill-opacity:1;fill-rule:nonzero;stroke:none;stroke-width:0.1"
         id="path369" />
      <path
         d="m 425.687,152.618 -4.991,2.882 c -0.4,0.231 -0.351,0.636 0.112,0.902 l 4.946,2.856 c 0.463,0.267 1.163,0.296 1.563,0.064 l 4.991,-2.881 c 0.401,-0.231 0.351,-0.635 -0.112,-0.903 l -4.945,-2.854 c -0.463,-0.268 -1.163,-0.297 -1.564,-0.066"
         style="fill:#263c7a;fill-opacity:1;fill-rule:nonzero;stroke:none;stroke-width:0.1"
         id="path371" />
      <path
         d="m 433.395,148.168 -4.991,2.882 c -0.4,0.231 -0.351,0.636 0.112,0.902 l 4.946,2.856 c 0.463,0.267 1.162,0.296 1.563,0.064 l 4.991,-2.881 c 0.401,-0.231 0.351,-0.636 -0.112,-0.903 l -4.945,-2.855 c -0.463,-0.267 -1.163,-0.296 -1.564,-0.065"
         style="fill:#263c7a;fill-opacity:1;fill-rule:nonzero;stroke:none;stroke-width:0.1"
         id="path373" />
      <path
         d="m 441.102,143.718 -4.99,2.882 c -0.401,0.231 -0.351,0.635 0.112,0.903 l 4.946,2.854 c 0.462,0.268 1.162,0.297 1.563,0.066 l 4.99,-2.882 c 0.402,-0.231 0.351,-0.636 -0.111,-0.902 l -4.946,-2.856 c -0.462,-0.267 -1.162,-0.296 -1.564,-0.065"
         style="fill:#263c7a;fill-opacity:1;fill-rule:nonzero;stroke:none;stroke-width:0.1"
         id="path375" />
      <path
         d="m 448.81,139.269 -4.991,2.88 c -0.4,0.232 -0.35,0.636 0.112,0.904 l 4.946,2.854 c 0.463,0.268 1.163,0.297 1.563,0.066 l 4.991,-2.882 c 0.402,-0.232 0.351,-0.636 -0.112,-0.903 l -4.945,-2.855 c -0.463,-0.268 -1.162,-0.296 -1.564,-0.064"
         style="fill:#263c7a;fill-opacity:1;fill-rule:nonzero;stroke:none;stroke-width:0.1"
         id="path377" />
      <path
         d="m 456.518,134.818 -4.991,2.881 c -0.4,0.232 -0.35,0.636 0.112,0.904 l 4.946,2.854 c 0.463,0.268 1.163,0.297 1.563,0.065 l 4.991,-2.881 c 0.401,-0.232 0.351,-0.636 -0.112,-0.903 l -4.945,-2.855 c -0.463,-0.268 -1.163,-0.296 -1.564,-0.065"
         style="fill:#263c7a;fill-opacity:1;fill-rule:nonzero;stroke:none;stroke-width:0.1"
         id="path379" />
      <path
         d="m 464.226,130.368 -4.991,2.882 c -0.401,0.23 -0.35,0.635 0.112,0.902 l 4.946,2.856 c 0.463,0.266 1.162,0.296 1.563,0.064 l 4.991,-2.882 c 0.401,-0.231 0.351,-0.635 -0.112,-0.902 l -4.945,-2.855 c -0.463,-0.267 -1.163,-0.296 -1.564,-0.065"
         style="fill:#263c7a;fill-opacity:1;fill-rule:nonzero;stroke:none;stroke-width:0.1"
         id="path381" />
      <path
         d="m 471.933,125.918 -4.99,2.882 c -0.401,0.231 -0.35,0.635 0.112,0.902 l 4.946,2.856 c 0.462,0.266 1.162,0.296 1.563,0.064 l 4.99,-2.882 c 0.402,-0.231 0.351,-0.635 -0.112,-0.902 l -4.945,-2.856 c -0.462,-0.266 -1.162,-0.295 -1.564,-0.064"
         style="fill:#263c7a;fill-opacity:1;fill-rule:nonzero;stroke:none;stroke-width:0.1"
         id="path383" />
      <path
         d="m 479.641,121.468 -4.991,2.882 c -0.4,0.231 -0.35,0.635 0.112,0.902 l 4.946,2.855 c 0.463,0.267 1.163,0.296 1.563,0.065 l 4.991,-2.882 c 0.402,-0.23 0.351,-0.635 -0.112,-0.902 l -4.945,-2.856 c -0.463,-0.266 -1.162,-0.296 -1.564,-0.064"
         style="fill:#263c7a;fill-opacity:1;fill-rule:nonzero;stroke:none;stroke-width:0.1"
         id="path385" />
      <path
         d="m 487.349,117.018 -4.991,2.881 c -0.4,0.232 -0.35,0.636 0.112,0.903 l 4.946,2.855 c 0.463,0.268 1.163,0.296 1.563,0.065 l 4.991,-2.881 c 0.401,-0.232 0.351,-0.636 -0.112,-0.904 l -4.945,-2.854 c -0.463,-0.268 -1.163,-0.297 -1.564,-0.065"
         style="fill:#263c7a;fill-opacity:1;fill-rule:nonzero;stroke:none;stroke-width:0.1"
         id="path387" />
      <path
         d="m 413.921,168.075 -4.992,2.882 c -0.4,0.231 -0.35,0.636 0.113,0.902 l 4.945,2.856 c 0.463,0.267 1.163,0.296 1.564,0.064 l 4.991,-2.881 c 0.401,-0.231 0.35,-0.635 -0.113,-0.903 l -4.945,-2.854 c -0.463,-0.268 -1.162,-0.297 -1.563,-0.066"
         style="fill:#263c7a;fill-opacity:1;fill-rule:nonzero;stroke:none;stroke-width:0.1"
         id="path389" />
      <path
         d="m 406.252,172.503 -4.992,2.882 c -0.4,0.231 -0.35,0.636 0.113,0.903 l 4.945,2.855 c 0.463,0.267 1.162,0.296 1.564,0.065 l 4.991,-2.882 c 0.4,-0.231 0.35,-0.636 -0.113,-0.902 l -4.945,-2.856 c -0.463,-0.267 -1.163,-0.296 -1.563,-0.065"
         style="fill:#263c7a;fill-opacity:1;fill-rule:nonzero;stroke:none;stroke-width:0.1"
         id="path391" />
      <path
         d="m 398.582,176.932 -4.991,2.88 c -0.401,0.232 -0.351,0.636 0.112,0.904 l 4.945,2.854 c 0.463,0.268 1.163,0.297 1.564,0.066 l 4.991,-2.882 c 0.401,-0.232 0.35,-0.636 -0.112,-0.902 l -4.946,-2.856 c -0.463,-0.267 -1.162,-0.296 -1.563,-0.064"
         style="fill:#263c7a;fill-opacity:1;fill-rule:nonzero;stroke:none;stroke-width:0.1"
         id="path393" />
      <path
         d="m 390.913,181.359 -4.991,2.882 c -0.401,0.232 -0.351,0.635 0.112,0.903 l 4.945,2.855 c 0.463,0.267 1.163,0.296 1.564,0.064 l 4.991,-2.881 c 0.4,-0.232 0.351,-0.635 -0.112,-0.903 l -4.946,-2.855 c -0.463,-0.267 -1.163,-0.296 -1.563,-0.065"
         style="fill:#263c7a;fill-opacity:1;fill-rule:nonzero;stroke:none;stroke-width:0.1"
         id="path395" />
      <path
         d="m 398.8,185.912 -4.992,2.882 c -0.401,0.231 -0.35,0.636 0.113,0.902 l 1.634,0.945 c 0.463,0.267 1.163,0.296 1.564,0.064 l 4.991,-2.881 c 0.4,-0.231 0.35,-0.636 -0.112,-0.903 l -1.635,-0.943 C 399.9,185.71 399.2,185.681 398.8,185.912"
         style="fill:#263c7a;fill-opacity:1;fill-rule:nonzero;stroke:none;stroke-width:0.1"
         id="path397" />
      <path
         d="m 408.807,180.134 -4.991,2.882 c -0.4,0.231 -0.349,0.635 0.112,0.902 l 1.635,0.944 c 0.463,0.267 1.163,0.296 1.564,0.065 l 4.991,-2.882 c 0.401,-0.231 0.351,-0.635 -0.112,-0.902 l -1.635,-0.944 c -0.463,-0.267 -1.162,-0.297 -1.564,-0.065"
         style="fill:#263c7a;fill-opacity:1;fill-rule:nonzero;stroke:none;stroke-width:0.1"
         id="path399" />
      <path
         d="m 416.445,175.725 -4.991,2.881 c -0.401,0.232 -0.351,0.635 0.112,0.903 l 1.635,0.944 c 0.463,0.267 1.163,0.296 1.563,0.065 l 4.992,-2.882 c 0.4,-0.232 0.35,-0.636 -0.113,-0.903 l -1.634,-0.944 c -0.463,-0.267 -1.164,-0.296 -1.564,-0.064"
         style="fill:#263c7a;fill-opacity:1;fill-rule:nonzero;stroke:none;stroke-width:0.1"
         id="path401" />
      <path
         d="m 424.083,171.315 -4.991,2.881 c -0.401,0.232 -0.351,0.636 0.112,0.904 l 1.635,0.943 c 0.463,0.268 1.163,0.297 1.563,0.065 l 4.991,-2.881 c 0.401,-0.232 0.351,-0.636 -0.112,-0.904 l -1.635,-0.943 c -0.463,-0.268 -1.163,-0.296 -1.563,-0.065"
         style="fill:#263c7a;fill-opacity:1;fill-rule:nonzero;stroke:none;stroke-width:0.1"
         id="path403" />
      <path
         d="m 431.72,166.905 -4.991,2.882 c -0.401,0.232 -0.35,0.636 0.113,0.902 l 1.634,0.945 c 0.463,0.266 1.162,0.296 1.564,0.064 l 4.991,-2.881 c 0.4,-0.231 0.35,-0.635 -0.112,-0.903 l -1.635,-0.943 c -0.463,-0.268 -1.163,-0.297 -1.564,-0.066"
         style="fill:#263c7a;fill-opacity:1;fill-rule:nonzero;stroke:none;stroke-width:0.1"
         id="path405" />
      <path
         d="m 474.359,142.288 -4.991,2.882 c -0.401,0.231 -0.351,0.636 0.112,0.902 l 1.635,0.945 c 0.463,0.266 1.162,0.295 1.563,0.064 l 4.992,-2.882 c 0.4,-0.231 0.35,-0.636 -0.113,-0.902 l -1.634,-0.944 c -0.463,-0.267 -1.163,-0.296 -1.564,-0.065"
         style="fill:#263c7a;fill-opacity:1;fill-rule:nonzero;stroke:none;stroke-width:0.1"
         id="path407" />
      <path
         d="m 481.996,137.879 -4.99,2.881 c -0.402,0.231 -0.351,0.636 0.111,0.903 l 1.636,0.943 c 0.462,0.268 1.162,0.297 1.563,0.066 l 4.99,-2.882 c 0.402,-0.231 0.351,-0.636 -0.112,-0.902 l -1.635,-0.945 c -0.462,-0.267 -1.162,-0.296 -1.563,-0.064"
         style="fill:#263c7a;fill-opacity:1;fill-rule:nonzero;stroke:none;stroke-width:0.1"
         id="path409" />
      <path
         d="m 489.634,133.469 -4.992,2.882 c -0.4,0.231 -0.35,0.635 0.113,0.902 l 1.634,0.944 c 0.463,0.268 1.163,0.296 1.564,0.065 l 4.991,-2.881 c 0.401,-0.232 0.351,-0.636 -0.112,-0.903 l -1.635,-0.944 c -0.463,-0.267 -1.162,-0.297 -1.563,-0.065"
         style="fill:#263c7a;fill-opacity:1;fill-rule:nonzero;stroke:none;stroke-width:0.1"
         id="path411" />
      <path
         d="m 497.271,129.06 -4.991,2.881 c -0.4,0.232 -0.351,0.636 0.112,0.903 l 1.635,0.944 c 0.463,0.267 1.163,0.296 1.564,0.065 l 4.991,-2.882 c 0.4,-0.232 0.35,-0.635 -0.113,-0.903 l -1.634,-0.944 c -0.463,-0.267 -1.163,-0.296 -1.564,-0.064"
         style="fill:#263c7a;fill-opacity:1;fill-rule:nonzero;stroke:none;stroke-width:0.1"
         id="path413" />
      <path
         d="m 421.629,163.625 -4.992,2.882 c -0.4,0.231 -0.35,0.636 0.113,0.902 l 4.945,2.856 c 0.463,0.267 1.163,0.296 1.564,0.065 l 4.991,-2.882 c 0.4,-0.231 0.35,-0.636 -0.113,-0.903 l -4.945,-2.855 c -0.463,-0.267 -1.163,-0.296 -1.563,-0.065"
         style="fill:#263c7a;fill-opacity:1;fill-rule:nonzero;stroke:none;stroke-width:0.1"
         id="path415" />
      <path
         d="m 429.337,159.175 -4.992,2.882 c -0.401,0.231 -0.35,0.635 0.113,0.903 l 4.945,2.854 c 0.463,0.268 1.162,0.297 1.564,0.066 l 4.991,-2.882 c 0.4,-0.231 0.35,-0.636 -0.113,-0.902 L 430.9,159.24 c -0.463,-0.267 -1.163,-0.296 -1.563,-0.065"
         style="fill:#263c7a;fill-opacity:1;fill-rule:nonzero;stroke:none;stroke-width:0.1"
         id="path417" />
      <path
         d="m 437.044,154.726 -4.991,2.88 c -0.401,0.232 -0.35,0.636 0.113,0.904 l 4.945,2.854 c 0.462,0.268 1.162,0.297 1.564,0.066 l 4.99,-2.882 c 0.401,-0.232 0.35,-0.636 -0.113,-0.902 l -4.945,-2.856 c -0.462,-0.268 -1.162,-0.296 -1.563,-0.064"
         style="fill:#263c7a;fill-opacity:1;fill-rule:nonzero;stroke:none;stroke-width:0.1"
         id="path419" />
      <path
         d="m 444.752,150.275 -4.992,2.881 c -0.4,0.232 -0.35,0.636 0.113,0.904 l 4.945,2.855 c 0.463,0.267 1.163,0.296 1.564,0.064 l 4.991,-2.881 c 0.401,-0.232 0.35,-0.636 -0.113,-0.903 l -4.945,-2.855 c -0.463,-0.268 -1.162,-0.296 -1.563,-0.065"
         style="fill:#263c7a;fill-opacity:1;fill-rule:nonzero;stroke:none;stroke-width:0.1"
         id="path421" />
      <path
         d="m 452.46,145.825 -4.991,2.882 c -0.401,0.231 -0.351,0.635 0.112,0.902 l 4.945,2.856 c 0.463,0.266 1.163,0.296 1.564,0.064 l 4.991,-2.882 c 0.4,-0.231 0.35,-0.635 -0.112,-0.902 l -4.946,-2.855 c -0.463,-0.267 -1.163,-0.296 -1.563,-0.065"
         style="fill:#263c7a;fill-opacity:1;fill-rule:nonzero;stroke:none;stroke-width:0.1"
         id="path423" />
      <path
         d="m 460.168,141.375 -4.991,2.882 c -0.402,0.231 -0.351,0.635 0.112,0.902 l 4.945,2.856 c 0.463,0.266 1.162,0.296 1.564,0.064 l 4.991,-2.882 c 0.4,-0.231 0.35,-0.635 -0.112,-0.902 l -4.946,-2.856 c -0.463,-0.266 -1.163,-0.295 -1.563,-0.064"
         style="fill:#263c7a;fill-opacity:1;fill-rule:nonzero;stroke:none;stroke-width:0.1"
         id="path425" />
      <path
         d="m 467.875,136.925 -4.99,2.882 c -0.402,0.231 -0.351,0.635 0.112,0.902 l 4.945,2.855 c 0.462,0.267 1.162,0.296 1.564,0.065 l 4.99,-2.882 c 0.401,-0.23 0.35,-0.635 -0.112,-0.902 l -4.946,-2.856 c -0.462,-0.266 -1.162,-0.296 -1.563,-0.064"
         style="fill:#263c7a;fill-opacity:1;fill-rule:nonzero;stroke:none;stroke-width:0.1"
         id="path427" />
      <path
         d="m 475.583,132.475 -4.991,2.881 c -0.401,0.232 -0.351,0.636 0.112,0.903 l 4.945,2.855 c 0.463,0.268 1.163,0.296 1.564,0.065 l 4.991,-2.881 c 0.401,-0.232 0.35,-0.636 -0.112,-0.903 l -4.946,-2.855 c -0.463,-0.268 -1.162,-0.297 -1.563,-0.065"
         style="fill:#263c7a;fill-opacity:1;fill-rule:nonzero;stroke:none;stroke-width:0.1"
         id="path429" />
      <path
         d="m 483.291,128.024 -4.991,2.882 c -0.401,0.232 -0.351,0.636 0.112,0.903 l 4.945,2.855 c 0.463,0.268 1.163,0.296 1.564,0.065 l 4.991,-2.881 c 0.4,-0.232 0.35,-0.636 -0.112,-0.904 l -4.946,-2.854 c -0.463,-0.268 -1.163,-0.297 -1.563,-0.066"
         style="fill:#263c7a;fill-opacity:1;fill-rule:nonzero;stroke:none;stroke-width:0.1"
         id="path431" />
      <path
         d="m 377.562,163.076 -14.699,8.486 c -0.401,0.232 -0.351,0.636 0.112,0.903 l 4.946,2.855 c 0.463,0.268 1.162,0.296 1.563,0.065 l 14.699,-8.487 c 0.401,-0.231 0.351,-0.635 -0.112,-0.902 l -4.945,-2.855 c -0.463,-0.267 -1.163,-0.296 -1.564,-0.065"
         style="fill:#263c7a;fill-opacity:1;fill-rule:nonzero;stroke:none;stroke-width:0.1"
         id="path433" />
      <path
         d="m 472.254,108.405 -14.7,8.488 c -0.4,0.231 -0.35,0.634 0.113,0.902 l 4.945,2.855 c 0.463,0.267 1.163,0.296 1.564,0.065 l 14.699,-8.486 c 0.4,-0.232 0.35,-0.636 -0.113,-0.904 l -4.945,-2.854 c -0.463,-0.268 -1.162,-0.297 -1.563,-0.066"
         style="fill:#263c7a;fill-opacity:1;fill-rule:nonzero;stroke:none;stroke-width:0.1"
         id="path435" />
      <path
         d="m 441.429,116.372 -4.991,2.882 c -0.4,0.231 -0.35,0.636 0.113,0.902 l 5.891,3.402 c 0.462,0.267 1.162,0.296 1.564,0.065 l 4.991,-2.882 c 0.4,-0.231 0.349,-0.636 -0.112,-0.902 l -5.892,-3.402 c -0.463,-0.267 -1.163,-0.296 -1.564,-0.065"
         style="fill:#263c7a;fill-opacity:1;fill-rule:nonzero;stroke:none;stroke-width:0.1"
         id="path437" />
      <path
         d="m 385.456,148.688 -7.983,4.61 c -0.4,0.231 -0.35,0.635 0.113,0.902 l 5.89,3.402 c 0.463,0.266 1.163,0.295 1.564,0.064 l 7.982,-4.608 c 0.402,-0.232 0.351,-0.636 -0.112,-0.903 l -5.891,-3.401 c -0.463,-0.268 -1.163,-0.296 -1.563,-0.066"
         style="fill:#263c7a;fill-opacity:1;fill-rule:nonzero;stroke:none;stroke-width:0.1"
         id="path439" />
      <path
         d="m 434.003,120.66 -7.983,4.609 c -0.4,0.231 -0.349,0.635 0.113,0.902 l 5.891,3.401 c 0.463,0.268 1.163,0.297 1.564,0.066 l 7.982,-4.609 c 0.4,-0.231 0.351,-0.635 -0.112,-0.903 l -5.892,-3.401 c -0.463,-0.267 -1.162,-0.296 -1.563,-0.065"
         style="fill:#263c7a;fill-opacity:1;fill-rule:nonzero;stroke:none;stroke-width:0.1"
         id="path441" />
      <path
         d="m 396.576,142.269 -7.982,4.608 c -0.401,0.231 -0.35,0.636 0.112,0.902 l 5.891,3.402 c 0.463,0.267 1.163,0.297 1.564,0.065 l 7.982,-4.608 c 0.401,-0.232 0.351,-0.636 -0.112,-0.904 l -5.892,-3.401 c -0.462,-0.267 -1.162,-0.296 -1.563,-0.064"
         style="fill:#263c7a;fill-opacity:1;fill-rule:nonzero;stroke:none;stroke-width:0.1"
         id="path443" />
      <path
         d="m 396.215,151.215 34.704,-20.037 c 0.43,-0.248 0.43,-0.652 0,-0.901 l -6.007,-3.467 c -0.431,-0.249 -1.129,-0.249 -1.56,0 l -34.704,20.036 7.567,4.369"
         style="fill:#263c7a;fill-opacity:1;fill-rule:nonzero;stroke:none;stroke-width:0.1"
         id="path445" />
      <path
         d="m 462.971,108.304 5.56,-3.21 c 0.328,-0.19 0.287,-0.521 -0.092,-0.74 l -2.41,-1.391 c -0.379,-0.219 -0.953,-0.243 -1.281,-0.053 l -5.56,3.209 c -0.329,0.191 -0.288,0.522 0.092,0.74 l 2.41,1.392 c 0.379,0.219 0.953,0.242 1.281,0.053"
         style="fill:#263c7a;fill-opacity:1;fill-rule:nonzero;stroke:none;stroke-width:0.1"
         id="path447" />
      <path
         d="m 455.2,112.791 5.56,-3.21 c 0.328,-0.189 0.287,-0.52 -0.093,-0.74 l -2.409,-1.391 c -0.38,-0.22 -0.954,-0.243 -1.283,-0.054 l -5.559,3.21 c -0.328,0.19 -0.287,0.521 0.093,0.741 l 2.409,1.39 c 0.38,0.22 0.953,0.243 1.282,0.054"
         style="fill:#263c7a;fill-opacity:1;fill-rule:nonzero;stroke:none;stroke-width:0.1"
         id="path449" />
      <path
         d="m 447.492,117.241 5.56,-3.21 c 0.328,-0.189 0.287,-0.52 -0.092,-0.74 l -2.41,-1.392 c -0.379,-0.218 -0.954,-0.242 -1.282,-0.052 l -5.559,3.21 c -0.329,0.189 -0.287,0.52 0.092,0.74 l 2.41,1.39 c 0.379,0.22 0.953,0.244 1.281,0.054"
         style="fill:#263c7a;fill-opacity:1;fill-rule:nonzero;stroke:none;stroke-width:0.1"
         id="path451" />
      <path
         d="m 459.456,115.248 5.559,-3.21 c 0.329,-0.189 0.287,-0.52 -0.091,-0.739 l -2.411,-1.392 c -0.378,-0.219 -0.953,-0.243 -1.281,-0.053 l -5.559,3.209 c -0.329,0.191 -0.288,0.522 0.091,0.741 l 2.411,1.391 c 0.378,0.219 0.953,0.242 1.281,0.053"
         style="fill:#263c7a;fill-opacity:1;fill-rule:nonzero;stroke:none;stroke-width:0.1"
         id="path453" />
      <path
         d="m 467.73,224.826 -4.773,2.756 c -0.443,0.256 -0.81,0.945 -0.82,1.54 -0.009,0.595 0.342,0.869 0.785,0.614 l 4.774,-2.757 c 0.442,-0.255 0.81,-0.944 0.819,-1.539 0.009,-0.594 -0.341,-0.87 -0.785,-0.614"
         style="fill:#d9effb;fill-opacity:1;fill-rule:nonzero;stroke:none;stroke-width:0.1"
         id="path455" />
      <path
         d="m 479.101,218.261 -7.039,4.064 c -0.442,0.256 -0.809,0.946 -0.819,1.54 -0.01,0.595 0.342,0.869 0.785,0.614 l 7.038,-4.064 c 0.444,-0.256 0.81,-0.945 0.819,-1.54 0.01,-0.595 -0.34,-0.87 -0.784,-0.614"
         style="fill:#d9effb;fill-opacity:1;fill-rule:nonzero;stroke:none;stroke-width:0.1"
         id="path457" />
      <path
         d="m 465.365,199.37 -4.773,2.756 c -0.443,0.256 -0.81,0.945 -0.82,1.54 -0.01,0.595 0.342,0.869 0.784,0.614 l 4.775,-2.757 c 0.442,-0.254 0.809,-0.944 0.819,-1.539 0.009,-0.594 -0.342,-0.87 -0.785,-0.614"
         style="fill:#d9effb;fill-opacity:1;fill-rule:nonzero;stroke:none;stroke-width:0.1"
         id="path459" />
      <path
         d="m 475.502,193.518 -7.039,4.064 c -0.444,0.256 -0.81,0.945 -0.82,1.54 -0.009,0.595 0.342,0.869 0.784,0.613 l 7.04,-4.063 c 0.443,-0.256 0.809,-0.945 0.819,-1.54 0.01,-0.595 -0.342,-0.87 -0.784,-0.614"
         style="fill:#d9effb;fill-opacity:1;fill-rule:nonzero;stroke:none;stroke-width:0.1"
         id="path461" />
      <path
         d="m 454.641,227.913 -2.982,1.722 c -0.442,0.256 -0.81,0.945 -0.819,1.54 -0.01,0.595 0.341,0.869 0.784,0.613 l 2.982,-1.722 c 0.444,-0.254 0.81,-0.944 0.82,-1.539 0.009,-0.594 -0.342,-0.87 -0.785,-0.614"
         style="fill:#d9effb;fill-opacity:1;fill-rule:nonzero;stroke:none;stroke-width:0.1"
         id="path463" />
      <path
         d="m 464.825,217.563 -9.111,5.261 c -0.444,0.256 -0.811,0.945 -0.82,1.539 -0.009,0.595 0.341,0.87 0.784,0.615 l 9.112,-5.261 c 0.442,-0.256 0.809,-0.946 0.819,-1.54 0.01,-0.595 -0.342,-0.869 -0.784,-0.614"
         style="fill:#d9effb;fill-opacity:1;fill-rule:nonzero;stroke:none;stroke-width:0.1"
         id="path465" />
      <path
         d="m 458.842,212.077 -2.983,1.722 c -0.442,0.256 -0.809,0.945 -0.819,1.54 -0.01,0.595 0.342,0.869 0.785,0.613 l 2.981,-1.722 c 0.444,-0.254 0.81,-0.944 0.82,-1.539 0.009,-0.594 -0.342,-0.87 -0.784,-0.614"
         style="fill:#d9effb;fill-opacity:1;fill-rule:nonzero;stroke:none;stroke-width:0.1"
         id="path467" />
      <path
         d="m 479.021,182.545 -7.965,4.599 c -0.443,0.255 -0.809,0.945 -0.819,1.54 -0.01,0.594 0.342,0.87 0.784,0.614 l 7.965,-4.599 c 0.443,-0.256 0.81,-0.945 0.819,-1.54 0.01,-0.595 -0.341,-0.87 -0.784,-0.614"
         style="fill:#d9effb;fill-opacity:1;fill-rule:nonzero;stroke:none;stroke-width:0.1"
         id="path469" />
      <path
         d="m 457.92,203.669 -1.914,1.104 c -0.443,0.256 -0.81,0.946 -0.82,1.54 -0.009,0.595 0.342,0.871 0.784,0.615 l 1.915,-1.106 c 0.443,-0.256 0.81,-0.945 0.819,-1.54 0.01,-0.595 -0.341,-0.869 -0.784,-0.613"
         style="fill:#d9effb;fill-opacity:1;fill-rule:nonzero;stroke:none;stroke-width:0.1"
         id="path471" />
      <path
         d="m 458.529,194.377 -2.377,1.372 c -0.443,0.256 -0.809,0.945 -0.819,1.54 -0.01,0.595 0.342,0.869 0.784,0.613 l 2.377,-1.372 c 0.443,-0.256 0.809,-0.945 0.819,-1.54 0.01,-0.594 -0.341,-0.869 -0.784,-0.613"
         style="fill:#d9effb;fill-opacity:1;fill-rule:nonzero;stroke:none;stroke-width:0.1"
         id="path473" />
      <path
         d="m 467.777,189.037 -6.267,3.618 c -0.443,0.256 -0.81,0.946 -0.82,1.54 -0.01,0.595 0.342,0.87 0.784,0.615 l 6.268,-3.619 c 0.442,-0.255 0.81,-0.945 0.819,-1.54 0.01,-0.594 -0.342,-0.87 -0.784,-0.614"
         style="fill:#d9effb;fill-opacity:1;fill-rule:nonzero;stroke:none;stroke-width:0.1"
         id="path475" />
      <path
         d="m 460.731,188.635 -4.506,2.601 c -0.443,0.256 -0.809,0.946 -0.819,1.54 -0.01,0.595 0.342,0.87 0.784,0.614 l 4.506,-2.602 c 0.443,-0.255 0.81,-0.944 0.819,-1.539 0.01,-0.595 -0.34,-0.87 -0.784,-0.614"
         style="fill:#d9effb;fill-opacity:1;fill-rule:nonzero;stroke:none;stroke-width:0.1"
         id="path477" />
      <path
         d="m 485.859,178.578 -2.893,1.671 c -0.443,0.255 -0.81,0.944 -0.82,1.539 -0.01,0.595 0.342,0.87 0.784,0.614 l 2.895,-1.671 c 0.442,-0.255 0.81,-0.945 0.819,-1.54 0.01,-0.594 -0.342,-0.869 -0.785,-0.613"
         style="fill:#d9effb;fill-opacity:1;fill-rule:nonzero;stroke:none;stroke-width:0.1"
         id="path479" />
      <path
         d="m 469.934,205.673 -7.965,4.598 c -0.443,0.256 -0.809,0.946 -0.819,1.541 -0.01,0.594 0.342,0.869 0.784,0.613 l 7.965,-4.599 c 0.444,-0.256 0.81,-0.945 0.82,-1.54 0.009,-0.595 -0.342,-0.869 -0.785,-0.613"
         style="fill:#d9effb;fill-opacity:1;fill-rule:nonzero;stroke:none;stroke-width:0.1"
         id="path481" />
      <path
         d="m 469.668,210.297 -13.882,8.015 c -0.442,0.255 -0.81,0.945 -0.819,1.54 -0.009,0.594 0.341,0.869 0.785,0.613 l 13.882,-8.015 c 0.442,-0.256 0.809,-0.945 0.819,-1.54 0.01,-0.595 -0.342,-0.869 -0.785,-0.613"
         style="fill:#d9effb;fill-opacity:1;fill-rule:nonzero;stroke:none;stroke-width:0.1"
         id="path483" />
      <path
         d="m 463.897,204.687 -7.965,4.599 c -0.442,0.256 -0.809,0.945 -0.819,1.54 -0.01,0.595 0.342,0.87 0.784,0.614 l 7.965,-4.598 c 0.443,-0.256 0.811,-0.946 0.82,-1.54 0.009,-0.595 -0.341,-0.87 -0.785,-0.615"
         style="fill:#d9effb;fill-opacity:1;fill-rule:nonzero;stroke:none;stroke-width:0.1"
         id="path485" />
      <path
         d="m 475.975,202.185 -2.893,1.67 c -0.444,0.256 -0.811,0.946 -0.82,1.541 -0.009,0.594 0.341,0.869 0.785,0.614 l 2.893,-1.671 c 0.444,-0.256 0.81,-0.945 0.82,-1.54 0.009,-0.595 -0.342,-0.87 -0.785,-0.614"
         style="fill:#d9effb;fill-opacity:1;fill-rule:nonzero;stroke:none;stroke-width:0.1"
         id="path487" />
      <path
         d="m 500.57,205.865 -17.137,9.895 c -0.442,0.256 -0.809,0.945 -0.819,1.54 -0.01,0.595 0.342,0.869 0.784,0.613 l 17.138,-9.893 c 0.442,-0.256 0.809,-0.946 0.819,-1.541 0.01,-0.594 -0.342,-0.869 -0.785,-0.614"
         style="fill:#d9effb;fill-opacity:1;fill-rule:nonzero;stroke:none;stroke-width:0.1"
         id="path489" />
      <path
         d="m 465.653,194.733 -9.574,5.529 c -0.444,0.256 -0.81,0.945 -0.819,1.54 -0.01,0.594 0.341,0.869 0.784,0.613 l 9.574,-5.527 c 0.443,-0.256 0.81,-0.946 0.819,-1.54 0.01,-0.595 -0.341,-0.87 -0.784,-0.615"
         style="fill:#d9effb;fill-opacity:1;fill-rule:nonzero;stroke:none;stroke-width:0.1"
         id="path491" />
      <path
         d="m 458.625,230.083 -7.039,4.064 c -0.443,0.256 -0.81,0.946 -0.82,1.54 -0.009,0.595 0.342,0.87 0.786,0.614 l 7.038,-4.064 c 0.443,-0.256 0.809,-0.945 0.819,-1.54 0.01,-0.594 -0.341,-0.869 -0.784,-0.614"
         style="fill:#d9effb;fill-opacity:1;fill-rule:nonzero;stroke:none;stroke-width:0.1"
         id="path493" />
      <path
         d="m 460.469,184.315 -8.152,4.707 c -0.442,0.256 -0.809,0.946 -0.819,1.54 -0.01,0.595 0.342,0.87 0.784,0.614 l 8.152,-4.706 c 0.444,-0.256 0.81,-0.946 0.82,-1.54 0.009,-0.595 -0.341,-0.87 -0.785,-0.615"
         style="fill:#d9effb;fill-opacity:1;fill-rule:nonzero;stroke:none;stroke-width:0.1"
         id="path495" />
      <path
         d="m 252.029,177.228 41.99,24.449 c 8.319,4.802 16.163,5.562 22.09,2.143 5.925,-3.422 9.189,-10.595 9.189,-20.201 v -3.076 c -0.297,-0.201 -0.608,-0.397 -0.926,-0.591 v 3.667 c 0,9.261 -3.099,16.15 -8.726,19.399 -5.628,3.248 -13.144,2.487 -21.164,-2.143 l -41.99,-24.448 c -0.219,-0.131 -0.504,-0.054 -0.632,0.169 -0.128,0.22 -0.052,0.505 0.169,0.632"
         style="fill:#d9effb;fill-opacity:1;fill-rule:nonzero;stroke:none;stroke-width:0.1"
         id="path497" />
      <path
         d="m 382.977,206.353 v 94.627 c 0,18.94 13.346,42.056 29.75,51.526 8.033,4.638 15.612,5.373 21.336,2.068 5.725,-3.304 8.877,-10.233 8.877,-19.51 v -6.598 c -0.308,-0.309 -0.617,-0.618 -0.926,-0.926 v 7.524 c 0,8.932 -2.988,15.577 -8.414,18.709 -5.426,3.13 -12.674,2.397 -20.41,-2.068 -16.148,-9.324 -29.287,-32.079 -29.287,-50.725 v -94.627 c 0,-15.7 -9.237,-34.282 -21.765,-45.463 0,0.414 0,0.828 0,1.242 12.033,11.057 20.839,29.013 20.839,44.221"
         style="fill:#d9effb;fill-opacity:1;fill-rule:nonzero;stroke:none;stroke-width:0.1"
         id="path499" />
      <path
         d="m 442.94,325.57 v 0 c 1.521,1.444 8.611,7.699 18.956,9.28 11.717,1.792 16.559,-11.911 16.559,-11.911 0,0 1.356,-7.117 1.307,-11.33 -0.048,-4.211 -0.35,-19.509 -0.35,-19.509 l -37.143,21.396 v 0.006 c -0.149,0.076 -0.255,0.228 -0.255,0.407 v 10.861 c 0.309,0.308 0.618,0.491 0.926,0.8"
         style="fill:#263c7a;fill-opacity:1;fill-rule:nonzero;stroke:none;stroke-width:0.1"
         id="path501" />
      <path
         d="m 469.269,334.278 -35.206,20.296 0.138,-0.505 c -5.426,3.505 -13.626,3.883 -24.596,-4.161 -21.788,-15.978 -24.405,-38.222 -25.516,-42.389 -1.111,-4.169 -0.654,-30.577 -0.654,-30.577 0,0 -0.072,-63.693 -0.145,-71.101 -0.072,-7.407 -2.229,-15.719 -6.391,-24.693 -4.162,-8.974 -14.852,-19.864 -14.852,-19.864 V 148.32 c 1.707,-14.016 7.662,-17.285 16.522,-18.084 7.151,-0.644 14.771,4.519 20.858,10.146 -0.224,-0.235 -0.369,-0.383 -0.369,-0.383 v -12.964 c 1.707,-14.016 7.662,-17.284 16.523,-18.084 8.86,-0.799 18.442,7.318 24.935,14.187 6.493,6.869 11.968,17.36 15.009,26.823 3.042,9.464 2.034,21.691 2.034,21.691 0,0 0.073,69.625 0.146,83.351 0.072,13.726 0.508,11.33 5.011,25.129 4.503,13.8 16.438,23.459 16.438,23.459 l 28.641,8.529 -38.526,22.158"
         style="fill:#d9effb;fill-opacity:1;fill-rule:nonzero;stroke:none;stroke-width:0.1"
         id="path503" />
      <path
         d="m 407.981,110.117 c -0.482,0.656 -6.756,4.862 -8.353,12.271 -0.89,4.121 -0.799,10.385 -0.799,10.385 0,0 0.025,3.484 0.109,6.652 l 0.212,0.179 c 0,0.415 0,0.829 0,1.243 l -0.174,-0.153 c 0.024,0.716 0.051,1.387 0.082,1.956 0.182,3.292 -2.251,10.313 -2.251,10.313 0,0 -3.45,9.405 -13.726,9.768 -9.125,0.323 -18.729,-6.241 -20.772,-7.719 v 4.246 c -0.135,-0.092 -0.282,-0.18 -0.423,-0.27 0.012,0.57 0.026,1.151 0.041,1.722 l 0.211,0.18 c 0,0.414 0,0.828 0,1.243 l -0.173,-0.153 c 0.023,0.715 0.05,1.386 0.082,1.956 0.181,3.292 -2.251,10.312 -2.251,10.312 0,0 -3.451,9.405 -13.727,9.769 -9.124,0.322 -18.728,-6.242 -20.771,-7.72 v 4.246 c -0.297,-0.2 -0.608,-0.397 -0.926,-0.591 v -7.435 c 0,-9.008 3.001,-15.779 8.451,-19.141 l 0.022,-0.025 0.191,-0.11 0.149,-0.095 0.103,-0.049 37.681,-21.695 -0.047,0.05 37.059,-21.335"
         style="fill:#263c7a;fill-opacity:1;fill-rule:nonzero;stroke:none;stroke-width:0.1"
         id="path505" />
      <path
         d="m 353.121,182.534 c 0,0 -0.282,0.146 -0.78,0.349 -0.153,0.073 -0.3,0.159 -0.456,0.228 l -35.776,20.708 c 0,0 -6.573,3.455 -14.523,0.545 -7.951,-2.91 -49.61,-27.901 -49.61,-27.901 l 37.217,-21.442 0.007,0.003 0.1,-0.026 36.905,-21.263 c 0,0 20.88,12.936 35.324,21.282 l 0.927,0.533 c 5.905,3.396 10.596,5.932 12.067,6.322 8.905,2.36 15.103,-0.516 16.716,-1.401 l -38.118,22.063"
         style="fill:#d9effb;fill-opacity:1;fill-rule:nonzero;stroke:none;stroke-width:0.1"
         id="path507" />
      <path
         d="m 391.239,160.471 0.431,-0.249 c 0,0 -0.158,0.099 -0.431,0.249"
         style="fill:#d9effb;fill-opacity:1;fill-rule:nonzero;stroke:none;stroke-width:0.1"
         id="path509" />
      <path
         d="m 479.952,304.284 v 0 c 1.52,1.445 8.61,7.7 18.956,9.28 11.717,1.792 16.559,-11.91 16.559,-11.91 0,0 1.355,-7.117 1.307,-11.33 -0.049,-4.212 -0.35,-19.51 -0.35,-19.51 l -37.143,21.397 v 0.005 c -0.149,0.077 -0.255,0.228 -0.255,0.408 v 10.86 c 0.309,0.309 0.617,0.492 0.926,0.8"
         style="fill:#263c7a;fill-opacity:1;fill-rule:nonzero;stroke:none;stroke-width:0.1"
         id="path511" />
      <path
         d="m 415.219,108.433 c 4.095,0 8.629,1.368 13.32,4.076 16.285,9.402 29.534,32.35 29.534,51.154 v 94.627 c 0,18.646 13.138,41.401 29.287,50.727 7.735,4.463 14.984,5.199 20.409,2.067 5.426,-3.134 8.414,-9.777 8.414,-18.71 V 271.22 c 0,-0.256 0.207,-0.463 0.463,-0.463 0.256,0 0.463,0.207 0.463,0.463 v 21.154 c 0,9.278 -3.152,16.206 -8.877,19.511 -5.724,3.305 -13.302,2.57 -21.335,-2.067 -16.405,-9.471 -29.751,-32.588 -29.751,-51.528 v -94.627 c 0,-18.51 -13.041,-41.098 -29.07,-50.352 -7.677,-4.432 -14.872,-5.163 -20.258,-2.052 -5.386,3.108 -8.351,9.703 -8.351,18.568 v 11.103 c 0,9.605 -3.263,16.779 -9.189,20.2 -5.926,3.42 -13.77,2.66 -22.089,-2.144 L 326.2,134.538 c -0.222,-0.127 -0.298,-0.411 -0.169,-0.632 0.127,-0.222 0.414,-0.295 0.632,-0.169 l 41.989,24.449 c 8.02,4.629 15.536,5.391 21.163,2.142 5.627,-3.249 8.726,-10.139 8.726,-19.398 v -11.103 c 0,-9.21 3.131,-16.089 8.814,-19.371 2.342,-1.352 4.996,-2.023 7.864,-2.023"
         style="fill:#4067b1;fill-opacity:1;fill-rule:nonzero;stroke:none;stroke-width:0.1"
         id="path513" />
      <path
         d="m 418.118,235.098 -6.208,3.584 c -0.575,0.332 -1.053,1.228 -1.066,2.002 -0.012,0.773 0.445,1.13 1.021,0.798 l 6.207,-3.584 c 0.576,-0.333 1.053,-1.229 1.065,-2.002 0.013,-0.774 -0.444,-1.131 -1.019,-0.798"
         style="fill:#5f92d3;fill-opacity:1;fill-rule:nonzero;stroke:none;stroke-width:0.1"
         id="path515" />
      <path
         d="m 431.299,227.487 -9.154,5.285 c -0.576,0.332 -1.052,1.229 -1.065,2.002 -0.013,0.774 0.444,1.131 1.02,0.798 l 9.153,-5.284 c 0.576,-0.333 1.052,-1.229 1.065,-2.002 0.013,-0.773 -0.444,-1.131 -1.019,-0.799"
         style="fill:#5f92d3;fill-opacity:1;fill-rule:nonzero;stroke:none;stroke-width:0.1"
         id="path517" />
      <path
         d="m 417.415,258.755 -11.849,6.841 c -0.575,0.333 -1.053,1.229 -1.065,2.002 -0.013,0.773 0.444,1.131 1.02,0.798 l 11.848,-6.84 c 0.576,-0.332 1.053,-1.229 1.065,-2.002 0.013,-0.774 -0.444,-1.131 -1.019,-0.799"
         style="fill:#5f92d3;fill-opacity:1;fill-rule:nonzero;stroke:none;stroke-width:0.1"
         id="path519" />
      <path
         d="m 409.635,251.621 -3.878,2.239 c -0.577,0.332 -1.053,1.229 -1.066,2.002 -0.013,0.774 0.444,1.131 1.021,0.798 l 3.877,-2.238 c 0.576,-0.333 1.053,-1.23 1.065,-2.003 0.013,-0.773 -0.443,-1.13 -1.019,-0.798"
         style="fill:#5f92d3;fill-opacity:1;fill-rule:nonzero;stroke:none;stroke-width:0.1"
         id="path521" />
      <path
         d="m 408.436,240.687 -2.489,1.437 c -0.576,0.333 -1.053,1.23 -1.065,2.003 -0.013,0.773 0.444,1.131 1.019,0.798 l 2.489,-1.437 c 0.577,-0.333 1.053,-1.229 1.066,-2.003 0.013,-0.773 -0.445,-1.131 -1.02,-0.798"
         style="fill:#5f92d3;fill-opacity:1;fill-rule:nonzero;stroke:none;stroke-width:0.1"
         id="path523" />
      <path
         d="m 424.059,243.293 -10.357,5.979 c -0.576,0.333 -1.053,1.23 -1.066,2.003 -0.012,0.774 0.445,1.131 1.02,0.798 l 10.357,-5.979 c 0.577,-0.333 1.053,-1.23 1.066,-2.003 0.013,-0.773 -0.444,-1.13 -1.02,-0.798"
         style="fill:#5f92d3;fill-opacity:1;fill-rule:nonzero;stroke:none;stroke-width:0.1"
         id="path525" />
      <path
         d="m 423.713,249.306 -18.051,10.422 c -0.576,0.333 -1.053,1.229 -1.066,2.002 -0.012,0.774 0.445,1.131 1.02,0.798 l 18.052,-10.422 c 0.575,-0.333 1.052,-1.229 1.065,-2.002 0.013,-0.773 -0.444,-1.13 -1.02,-0.798"
         style="fill:#5f92d3;fill-opacity:1;fill-rule:nonzero;stroke:none;stroke-width:0.1"
         id="path527" />
      <path
         d="m 416.209,242.013 -10.358,5.979 c -0.575,0.333 -1.052,1.23 -1.065,2.002 -0.012,0.774 0.444,1.131 1.02,0.799 l 10.358,-5.981 c 0.575,-0.332 1.053,-1.228 1.065,-2.001 0.013,-0.774 -0.444,-1.131 -1.02,-0.798"
         style="fill:#5f92d3;fill-opacity:1;fill-rule:nonzero;stroke:none;stroke-width:0.1"
         id="path529" />
      <path
         d="m 431.915,238.758 -3.764,2.173 c -0.575,0.332 -1.053,1.228 -1.065,2.002 -0.013,0.773 0.444,1.13 1.02,0.797 l 3.763,-2.171 c 0.576,-0.333 1.053,-1.23 1.065,-2.003 0.013,-0.774 -0.444,-1.131 -1.019,-0.798"
         style="fill:#5f92d3;fill-opacity:1;fill-rule:nonzero;stroke:none;stroke-width:0.1"
         id="path531" />
      <path
         d="m 421.193,268.199 -6.207,3.584 c -0.576,0.333 -1.053,1.23 -1.065,2.002 -0.013,0.774 0.444,1.131 1.019,0.799 L 421.148,271 c 0.575,-0.333 1.053,-1.229 1.066,-2.002 0.012,-0.773 -0.445,-1.131 -1.021,-0.799"
         style="fill:#5f92d3;fill-opacity:1;fill-rule:nonzero;stroke:none;stroke-width:0.1"
         id="path533" />
      <path
         d="m 435.979,259.662 -9.152,5.285 c -0.576,0.332 -1.054,1.229 -1.067,2.002 -0.011,0.774 0.445,1.131 1.021,0.798 l 9.153,-5.284 c 0.576,-0.332 1.053,-1.229 1.066,-2.002 0.012,-0.774 -0.445,-1.131 -1.021,-0.799"
         style="fill:#5f92d3;fill-opacity:1;fill-rule:nonzero;stroke:none;stroke-width:0.1"
         id="path535" />
      <path
         d="m 418.118,235.098 -6.208,3.584 c -0.575,0.332 -1.053,1.228 -1.066,2.002 -0.012,0.773 0.445,1.13 1.021,0.798 l 6.207,-3.584 c 0.576,-0.333 1.053,-1.229 1.065,-2.002 0.013,-0.774 -0.444,-1.131 -1.019,-0.798"
         style="fill:#5f92d3;fill-opacity:1;fill-rule:nonzero;stroke:none;stroke-width:0.1"
         id="path537" />
      <path
         d="m 431.299,227.487 -9.154,5.285 c -0.576,0.332 -1.052,1.229 -1.065,2.002 -0.013,0.774 0.444,1.131 1.02,0.798 l 9.153,-5.284 c 0.576,-0.333 1.052,-1.229 1.065,-2.002 0.013,-0.773 -0.444,-1.131 -1.019,-0.799"
         style="fill:#5f92d3;fill-opacity:1;fill-rule:nonzero;stroke:none;stroke-width:0.1"
         id="path539" />
      <path
         d="m 404.173,272.214 -3.878,2.238 c -0.576,0.333 -1.053,1.23 -1.066,2.003 -0.012,0.774 0.445,1.131 1.021,0.798 l 3.877,-2.239 c 0.576,-0.332 1.053,-1.229 1.065,-2.002 0.013,-0.774 -0.443,-1.131 -1.019,-0.798"
         style="fill:#5f92d3;fill-opacity:1;fill-rule:nonzero;stroke:none;stroke-width:0.1"
         id="path541" />
      <path
         d="m 417.415,258.755 -11.849,6.841 c -0.575,0.333 -1.053,1.229 -1.065,2.002 -0.013,0.773 0.444,1.131 1.02,0.798 l 11.848,-6.84 c 0.576,-0.332 1.053,-1.229 1.065,-2.002 0.013,-0.774 -0.444,-1.131 -1.019,-0.799"
         style="fill:#5f92d3;fill-opacity:1;fill-rule:nonzero;stroke:none;stroke-width:0.1"
         id="path543" />
      <path
         d="m 409.635,251.621 -3.878,2.239 c -0.577,0.332 -1.053,1.229 -1.066,2.002 -0.013,0.774 0.444,1.131 1.021,0.798 l 3.877,-2.238 c 0.576,-0.333 1.053,-1.23 1.065,-2.003 0.013,-0.773 -0.443,-1.13 -1.019,-0.798"
         style="fill:#5f92d3;fill-opacity:1;fill-rule:nonzero;stroke:none;stroke-width:0.1"
         id="path545" />
      <path
         d="m 435.875,213.219 -10.357,5.98 c -0.576,0.332 -1.053,1.229 -1.066,2.002 -0.012,0.774 0.444,1.131 1.02,0.799 l 10.358,-5.98 c 0.575,-0.333 1.053,-1.229 1.065,-2.002 0.013,-0.774 -0.444,-1.131 -1.02,-0.799"
         style="fill:#5f92d3;fill-opacity:1;fill-rule:nonzero;stroke:none;stroke-width:0.1"
         id="path547" />
      <path
         d="m 408.436,240.687 -2.489,1.437 c -0.576,0.333 -1.053,1.23 -1.065,2.003 -0.013,0.773 0.444,1.131 1.019,0.798 l 2.489,-1.437 c 0.577,-0.333 1.053,-1.229 1.066,-2.003 0.013,-0.773 -0.445,-1.131 -1.02,-0.798"
         style="fill:#5f92d3;fill-opacity:1;fill-rule:nonzero;stroke:none;stroke-width:0.1"
         id="path549" />
      <path
         d="m 409.228,228.604 -3.091,1.785 c -0.576,0.333 -1.053,1.228 -1.065,2.002 -0.013,0.773 0.443,1.13 1.02,0.798 l 3.09,-1.785 c 0.577,-0.332 1.054,-1.228 1.066,-2.002 0.012,-0.773 -0.444,-1.131 -1.02,-0.798"
         style="fill:#5f92d3;fill-opacity:1;fill-rule:nonzero;stroke:none;stroke-width:0.1"
         id="path551" />
      <path
         d="m 421.254,221.661 -8.15,4.705 c -0.576,0.333 -1.053,1.23 -1.065,2.003 -0.013,0.773 0.443,1.13 1.019,0.798 l 8.15,-4.705 c 0.576,-0.333 1.052,-1.23 1.065,-2.003 0.013,-0.773 -0.444,-1.131 -1.019,-0.798"
         style="fill:#5f92d3;fill-opacity:1;fill-rule:nonzero;stroke:none;stroke-width:0.1"
         id="path553" />
      <path
         d="m 412.092,221.138 -5.86,3.383 c -0.576,0.333 -1.053,1.229 -1.065,2.002 -0.013,0.774 0.444,1.131 1.02,0.798 l 5.86,-3.383 c 0.575,-0.333 1.052,-1.229 1.065,-2.002 0.013,-0.773 -0.444,-1.13 -1.02,-0.798"
         style="fill:#5f92d3;fill-opacity:1;fill-rule:nonzero;stroke:none;stroke-width:0.1"
         id="path555" />
      <path
         d="m 424.059,243.293 -10.357,5.979 c -0.576,0.333 -1.053,1.23 -1.066,2.003 -0.012,0.774 0.445,1.131 1.02,0.798 l 10.357,-5.979 c 0.577,-0.333 1.053,-1.23 1.066,-2.003 0.013,-0.773 -0.444,-1.13 -1.02,-0.798"
         style="fill:#5f92d3;fill-opacity:1;fill-rule:nonzero;stroke:none;stroke-width:0.1"
         id="path557" />
      <path
         d="m 423.713,249.306 -18.051,10.422 c -0.576,0.333 -1.053,1.229 -1.066,2.002 -0.012,0.774 0.445,1.131 1.02,0.798 l 18.052,-10.422 c 0.575,-0.333 1.052,-1.229 1.065,-2.002 0.013,-0.773 -0.444,-1.13 -1.02,-0.798"
         style="fill:#5f92d3;fill-opacity:1;fill-rule:nonzero;stroke:none;stroke-width:0.1"
         id="path559" />
      <path
         d="m 416.209,242.013 -10.358,5.979 c -0.575,0.333 -1.052,1.23 -1.065,2.002 -0.012,0.774 0.444,1.131 1.02,0.799 l 10.358,-5.981 c 0.575,-0.332 1.053,-1.228 1.065,-2.001 0.013,-0.774 -0.444,-1.131 -1.02,-0.798"
         style="fill:#5f92d3;fill-opacity:1;fill-rule:nonzero;stroke:none;stroke-width:0.1"
         id="path561" />
      <path
         d="m 431.915,238.758 -3.764,2.173 c -0.575,0.332 -1.053,1.228 -1.065,2.002 -0.013,0.773 0.444,1.13 1.02,0.797 l 3.763,-2.171 c 0.576,-0.333 1.053,-1.23 1.065,-2.003 0.013,-0.774 -0.444,-1.131 -1.019,-0.798"
         style="fill:#5f92d3;fill-opacity:1;fill-rule:nonzero;stroke:none;stroke-width:0.1"
         id="path563" />
      <path
         d="m 418.492,229.068 -12.45,7.189 c -0.575,0.332 -1.053,1.228 -1.066,2.002 -0.012,0.773 0.445,1.131 1.021,0.798 l 12.45,-7.188 c 0.575,-0.333 1.053,-1.229 1.065,-2.003 0.012,-0.773 -0.444,-1.13 -1.02,-0.798"
         style="fill:#5f92d3;fill-opacity:1;fill-rule:nonzero;stroke:none;stroke-width:0.1"
         id="path565" />
      <path
         d="m 409.352,275.036 -9.152,5.284 c -0.576,0.332 -1.054,1.229 -1.065,2.002 -0.013,0.774 0.443,1.131 1.019,0.799 l 9.153,-5.285 c 0.577,-0.332 1.053,-1.229 1.066,-2.002 0.012,-0.773 -0.445,-1.131 -1.021,-0.798"
         style="fill:#5f92d3;fill-opacity:1;fill-rule:nonzero;stroke:none;stroke-width:0.1"
         id="path567" />
      <path
         d="m 411.752,215.521 -10.602,6.121 c -0.575,0.333 -1.053,1.229 -1.065,2.003 -0.012,0.773 0.444,1.129 1.02,0.797 l 10.601,-6.12 c 0.576,-0.333 1.053,-1.229 1.065,-2.003 0.013,-0.773 -0.444,-1.131 -1.019,-0.798"
         style="fill:#5f92d3;fill-opacity:1;fill-rule:nonzero;stroke:none;stroke-width:0.1"
         id="path569" />
      <path
         d="m 416.659,179.413 -6.208,3.584 c -0.576,0.332 -1.053,1.229 -1.066,2.002 -0.012,0.773 0.445,1.131 1.021,0.799 l 6.207,-3.584 c 0.576,-0.333 1.053,-1.23 1.065,-2.003 0.013,-0.774 -0.444,-1.131 -1.019,-0.798"
         style="fill:#5f92d3;fill-opacity:1;fill-rule:nonzero;stroke:none;stroke-width:0.1"
         id="path571" />
      <path
         d="m 429.84,171.803 -9.154,5.285 c -0.576,0.332 -1.052,1.228 -1.065,2.002 -0.013,0.773 0.444,1.131 1.019,0.799 l 9.154,-5.285 c 0.576,-0.333 1.052,-1.229 1.065,-2.002 0.013,-0.774 -0.444,-1.131 -1.019,-0.799"
         style="fill:#5f92d3;fill-opacity:1;fill-rule:nonzero;stroke:none;stroke-width:0.1"
         id="path573" />
      <path
         d="m 415.955,203.07 -11.848,6.841 c -0.576,0.333 -1.053,1.23 -1.065,2.003 -0.013,0.773 0.444,1.13 1.02,0.798 l 11.848,-6.841 c 0.576,-0.332 1.053,-1.228 1.065,-2.002 0.013,-0.773 -0.444,-1.131 -1.02,-0.799"
         style="fill:#5f92d3;fill-opacity:1;fill-rule:nonzero;stroke:none;stroke-width:0.1"
         id="path575" />
      <path
         d="m 408.176,195.937 -3.878,2.239 c -0.577,0.332 -1.053,1.228 -1.066,2.002 -0.013,0.773 0.445,1.131 1.02,0.799 l 3.878,-2.24 c 0.576,-0.332 1.052,-1.228 1.065,-2.002 0.013,-0.773 -0.444,-1.131 -1.019,-0.798"
         style="fill:#5f92d3;fill-opacity:1;fill-rule:nonzero;stroke:none;stroke-width:0.1"
         id="path577" />
      <path
         d="m 406.976,185.003 -2.488,1.437 c -0.576,0.332 -1.054,1.229 -1.065,2.002 -0.013,0.774 0.443,1.131 1.019,0.798 l 2.489,-1.436 c 0.577,-0.333 1.053,-1.23 1.066,-2.003 0.013,-0.774 -0.445,-1.131 -1.021,-0.798"
         style="fill:#5f92d3;fill-opacity:1;fill-rule:nonzero;stroke:none;stroke-width:0.1"
         id="path579" />
      <path
         d="m 422.599,187.608 -10.356,5.981 c -0.576,0.332 -1.054,1.228 -1.066,2.002 -0.012,0.773 0.444,1.131 1.02,0.798 l 10.357,-5.98 c 0.577,-0.332 1.053,-1.228 1.066,-2.002 0.013,-0.773 -0.444,-1.131 -1.021,-0.799"
         style="fill:#5f92d3;fill-opacity:1;fill-rule:nonzero;stroke:none;stroke-width:0.1"
         id="path581" />
      <path
         d="m 422.254,193.621 -18.051,10.423 c -0.576,0.332 -1.054,1.228 -1.067,2.002 -0.011,0.773 0.445,1.131 1.021,0.798 l 18.052,-10.422 c 0.575,-0.332 1.052,-1.229 1.065,-2.002 0.012,-0.774 -0.444,-1.131 -1.02,-0.799"
         style="fill:#5f92d3;fill-opacity:1;fill-rule:nonzero;stroke:none;stroke-width:0.1"
         id="path583" />
      <path
         d="m 414.75,186.328 -10.358,5.98 c -0.575,0.333 -1.052,1.229 -1.065,2.003 -0.013,0.773 0.444,1.129 1.02,0.797 l 10.358,-5.979 c 0.575,-0.333 1.053,-1.23 1.065,-2.003 0.012,-0.773 -0.444,-1.131 -1.02,-0.798"
         style="fill:#5f92d3;fill-opacity:1;fill-rule:nonzero;stroke:none;stroke-width:0.1"
         id="path585" />
      <path
         d="m 430.455,183.073 -3.763,2.173 c -0.576,0.332 -1.053,1.229 -1.065,2.002 -0.013,0.773 0.444,1.131 1.02,0.799 l 3.763,-2.173 c 0.576,-0.333 1.053,-1.229 1.065,-2.003 0.013,-0.773 -0.444,-1.131 -1.02,-0.798"
         style="fill:#5f92d3;fill-opacity:1;fill-rule:nonzero;stroke:none;stroke-width:0.1"
         id="path587" />
      <path
         d="M 462.037,49.8 473.534,56.4371 485.031,49.8 473.534,43.1621 462.037,49.8"
         style="fill:#d9effb;fill-opacity:1;fill-rule:nonzero;stroke:none;stroke-width:0.1"
         id="path589" />
      <path
         d="m 486.441,64.0781 11.496,6.6379 11.497,-6.6379 -11.497,-6.6383 -11.496,6.6383"
         style="fill:#d9effb;fill-opacity:1;fill-rule:nonzero;stroke:none;stroke-width:0.1"
         id="path591" />
      <path
         d="m 510.77,78.016 11.497,6.6371 11.497,-6.6371 -11.497,-6.6379 -11.497,6.6379"
         style="fill:#d9effb;fill-opacity:1;fill-rule:nonzero;stroke:none;stroke-width:0.1"
         id="path593" />
      <path
         d="m 497.937,64.0781 v 35.4008 l -11.496,6.6371 v -35.4 l 11.496,-6.6379"
         style="fill:#c23222;fill-opacity:1;fill-rule:nonzero;stroke:none;stroke-width:0.1"
         id="path595" />
      <path
         d="m 497.937,99.4789 11.497,6.6371 v -35.4 l -11.497,-6.6379 v 35.4008"
         style="fill:#d1078d;fill-opacity:1;fill-rule:nonzero;stroke:none;stroke-width:0.1"
         id="path597" />
      <path
         d="m 497.937,64.0781 v 35.4008 l -11.496,6.6371 v -35.4 l 11.496,-6.6379"
         style="fill:#d1078d;fill-opacity:1;fill-rule:nonzero;stroke:none;stroke-width:0.1"
         id="path599" />
      <path
         d="m 473.534,49.8 v 19.9129 l -11.497,6.6383 V 56.4371 L 473.534,49.8"
         style="fill:#d1078d;fill-opacity:1;fill-rule:nonzero;stroke:none;stroke-width:0.1"
         id="path601" />
      <path
         d="m 473.534,69.7129 11.497,6.6383 V 56.4371 L 473.534,49.8 v 19.9129"
         style="fill:#d1078d;fill-opacity:1;fill-rule:nonzero;stroke:none;stroke-width:0.1"
         id="path603" />
      <path
         d="m 462.037,76.3512 11.497,6.6367 11.497,-6.6367 -11.497,-6.6383 -11.497,6.6383"
         style="fill:#ee1696;fill-opacity:1;fill-rule:nonzero;stroke:none;stroke-width:0.1"
         id="path605" />
      <path
         d="m 522.267,78.016 v 48.675 l -11.497,6.638 V 84.6531 l 11.497,-6.6371"
         style="fill:#d1078d;fill-opacity:1;fill-rule:nonzero;stroke:none;stroke-width:0.1"
         id="path607" />
      <path
         d="m 522.267,126.691 11.497,6.638 V 84.6531 L 522.267,78.016 v 48.675"
         style="fill:#d1078d;fill-opacity:1;fill-rule:nonzero;stroke:none;stroke-width:0.1"
         id="path609" />
      <path
         d="m 510.77,133.329 11.497,6.638 11.497,-6.638 -11.497,-6.638 -11.497,6.638"
         style="fill:#ee1696;fill-opacity:1;fill-rule:nonzero;stroke:none;stroke-width:0.1"
         id="path611" />
      <path
         d="m 486.441,106.116 11.496,6.638 11.497,-6.638 -11.497,-6.6371 -11.496,6.6371"
         style="fill:#ee1696;fill-opacity:1;fill-rule:nonzero;stroke:none;stroke-width:0.1"
         id="path613" />
      <path
         d="m 298.475,116.212 c 0,0 -3.548,1.79 -5.727,-0.875 -2.18,-2.665 -5.295,-8.956 -5.392,-13.207 -0.096,-4.2511 3.364,-3.964 5.421,-2.9581 2.057,1.0071 8.067,9.7231 8.43,11.4311 0.364,1.708 -0.429,4.017 -1.007,4.469 -0.578,0.452 -1.725,1.14 -1.725,1.14"
         style="fill:#5f92d3;fill-opacity:1;fill-rule:nonzero;stroke:none;stroke-width:0.1"
         id="path615" />
      <path
         d="m 299.25,117.067 0.164,-3.676 c 0.035,-0.783 -0.358,-1.528 -1.038,-1.913 -0.62,-0.352 -1.521,-0.622 -2.739,-0.426 -2.672,0.429 -2.911,1.193 -3.102,4.869 -0.191,3.676 6.715,1.146 6.715,1.146"
         style="fill:#d9effb;fill-opacity:1;fill-rule:nonzero;stroke:none;stroke-width:0.1"
         id="path617" />
      <path
         d="m 285.485,123.281 c 0,0 -3.549,1.79 -5.728,-0.875 -2.179,-2.665 -5.295,-8.956 -5.391,-13.207 -0.097,-4.251 3.363,-3.964 5.421,-2.958 2.057,1.007 8.065,9.724 8.43,11.432 0.363,1.708 -0.43,4.016 -1.008,4.469 -0.578,0.452 -1.724,1.139 -1.724,1.139"
         style="fill:#5f92d3;fill-opacity:1;fill-rule:nonzero;stroke:none;stroke-width:0.1"
         id="path619" />
      <path
         d="m 286.26,124.137 0.164,-3.677 c 0.035,-0.782 -0.359,-1.526 -1.039,-1.913 -0.62,-0.352 -1.52,-0.621 -2.738,-0.426 -2.673,0.43 -2.912,1.194 -3.102,4.87 -0.192,3.676 6.715,1.146 6.715,1.146"
         style="fill:#d9effb;fill-opacity:1;fill-rule:nonzero;stroke:none;stroke-width:0.1"
         id="path621" />
      <path
         d="m 317.926,191.639 c -1.05,17.09 -18.508,-2.515 -18.508,-2.515 L 287.469,177.412 276.71,165.593 c -2.102,-2.309 -3.079,-5.426 -2.673,-8.521 l 4.352,-33.142 c 0.215,-1.637 1.616,-2.844 3.267,-2.831 0.466,0.004 1,0.047 1.612,0.141 3.883,0.605 3.596,4.297 3.596,4.297 l -0.796,30.998 22.597,13.621 c 0,0 10.311,4.392 9.261,21.483"
         style="fill:#263c7a;fill-opacity:1;fill-rule:nonzero;stroke:none;stroke-width:0.1"
         id="path623" />
      <path
         d="m 330.917,185.127 c -1.051,17.09 -18.509,-2.515 -18.509,-2.515 L 300.46,170.9 289.7,159.081 c -2.102,-2.309 -3.079,-5.425 -2.673,-8.52 l 4.353,-33.143 c 0.214,-1.637 1.615,-2.844 3.266,-2.83 0.466,0.003 1,0.046 1.613,0.141 3.882,0.605 3.595,4.296 3.595,4.296 l -0.795,30.998 22.596,13.622 c 0,0 10.312,4.391 9.262,21.482"
         style="fill:#263c7a;fill-opacity:1;fill-rule:nonzero;stroke:none;stroke-width:0.1"
         id="path625" />
      <path
         d="m 320.588,239.987 c 13.236,-5.487 12.97,-13.311 12.97,-13.311 0,0 -2.592,-28.683 -1.708,-47.839 0.37,-8.008 -42.546,-8.619 -36.145,12.745 7.546,25.19 4.718,45.583 8.25,48.658 3.533,3.076 13.21,1.166 16.633,-0.253"
         style="fill:#5f92d3;fill-opacity:1;fill-rule:nonzero;stroke:none;stroke-width:0.1"
         id="path627" />
      <path
         d="m 324.846,233.05 c -0.692,-2.688 -4.212,-4.104 -7.864,-3.163 -3.651,0.94 -6.05,3.881 -5.357,6.568 0.692,2.688 4.213,4.104 7.864,3.163 3.651,-0.94 6.05,-3.882 5.357,-6.568"
         style="fill:#fab6a9;fill-opacity:1;fill-rule:nonzero;stroke:none;stroke-width:0.1"
         id="path629" />
      <path
         d="m 317.223,239.277 c -2.458,0 -4.512,-1.143 -4.986,-2.98 -0.283,-1.1 0.047,-2.301 0.928,-3.381 0.928,-1.137 2.339,-1.995 3.975,-2.417 3.304,-0.851 6.49,0.364 7.094,2.709 0.283,1.1 -0.047,2.3 -0.928,3.381 -0.927,1.137 -2.338,1.995 -3.975,2.417 -0.716,0.184 -1.428,0.271 -2.108,0.271 z m 1.994,-10.311 c -0.777,0 -1.582,0.099 -2.393,0.308 -1.896,0.488 -3.543,1.497 -4.64,2.842 -1.142,1.401 -1.558,2.997 -1.172,4.497 0.778,3.022 4.651,4.646 8.635,3.617 1.896,-0.487 3.543,-1.497 4.64,-2.841 1.142,-1.401 1.558,-2.998 1.172,-4.497 -0.619,-2.407 -3.204,-3.926 -6.242,-3.926"
         style="fill:#ffffff;fill-opacity:1;fill-rule:nonzero;stroke:none;stroke-width:0.1"
         id="path631" />
      <path
         d="m 315.281,240.584 c 0,0 0.114,-0.531 -0.114,-4.726 -0.073,-1.318 4.545,-2.549 5.738,-1.356 1.193,1.193 0.716,2.435 1.002,6.922 0.287,4.487 -6.626,-0.84 -6.626,-0.84"
         style="fill:#fab6a9;fill-opacity:1;fill-rule:nonzero;stroke:none;stroke-width:0.1"
         id="path633" />
      <path
         d="m 321.907,241.424 c 0,0 -1.137,-4.16 -6.741,-5.757 l 0.085,3.782 6.656,1.975"
         style="fill:#eb8b8a;fill-opacity:1;fill-rule:nonzero;stroke:none;stroke-width:0.1"
         id="path635" />
      <path
         d="m 325.458,251.995 c 1.408,-5.447 -1.866,-11.006 -7.314,-12.414 -5.447,-1.408 -11.005,1.866 -12.414,7.314 -1.408,5.448 1.866,11.005 7.314,12.414 5.448,1.408 11.006,-1.867 12.414,-7.314"
         style="fill:#fab6a9;fill-opacity:1;fill-rule:nonzero;stroke:none;stroke-width:0.1"
         id="path637" />
      <path
         d="m 317.934,249.071 c 0,0 -5.609,-2.403 -9.493,-2.43 -3.885,-0.028 -3.028,3.225 -3.028,3.225 l 11.529,1.666 0.992,-2.461"
         style="fill:#eb8b8a;fill-opacity:1;fill-rule:nonzero;stroke:none;stroke-width:0.1"
         id="path639" />
      <path
         d="m 307.283,248.438 c 0,0 4.886,2.075 9.173,1.209 1.008,-0.203 1.941,-0.742 2.591,-1.539 0.212,-0.26 0.479,-0.499 0.784,-0.567 0.76,-0.172 2.004,2.981 3.481,3.053 1.478,0.072 2.464,-0.974 1.252,-2.913 -1.212,-1.94 -0.802,-4.111 -0.244,-4.421 0.557,-0.312 6.47,4.216 1.254,14.548 -5.215,10.331 -18.462,4.766 -20.522,2.672 0,0 -2.171,-1.891 -3.936,-0.209 0,0 -1.98,-14.821 6.167,-11.833"
         style="fill:#ee1696;fill-opacity:1;fill-rule:nonzero;stroke:none;stroke-width:0.1"
         id="path641" />
      <path
         d="m 326.134,205.72 v -7.75 c 0,-0.889 -0.374,-1.736 -1.031,-2.334 l -15.922,-14.516 1.81,-2.766 21.026,15.25 c 0.982,0.71 1.615,1.806 1.742,3.012 l 1.42,13.517 -9.045,-4.413"
         style="fill:#fab6a9;fill-opacity:1;fill-rule:nonzero;stroke:none;stroke-width:0.1"
         id="path643" />
      <path
         d="m 332.438,230.551 c 0,0 4.83,-7.264 6.63,-26.385 0,0 -8.252,-2.669 -12.934,-1.154 -4.683,1.515 6.304,27.539 6.304,27.539"
         style="fill:#5f92d3;fill-opacity:1;fill-rule:nonzero;stroke:none;stroke-width:0.1"
         id="path645" />
      <path
         d="m 325.252,221.366 c 0,0 -1.892,-10.12 -1.998,-14.877 -0.03,-1.307 0.768,-2.487 1.998,-2.931 v 17.808"
         style="fill:#4067b1;fill-opacity:1;fill-rule:nonzero;stroke:none;stroke-width:0.1"
         id="path647" />
      <path
         d="m 321.121,171.042 -3.519,0.465 -22.717,13.115 c -0.727,0.42 -2,0.367 -2.84,-0.118 l -16.097,-9.29 -2.128,0.281 v -2.118 h 0.002 c -0.014,-0.279 0.146,-0.548 0.489,-0.746 l 25.743,-14.863 c 0.729,-0.421 2.001,-0.369 2.842,0.118 l 17.53,10.117 c 0.473,0.273 0.709,0.625 0.695,0.955 v 2.084"
         style="fill:#5f92d3;fill-opacity:1;fill-rule:nonzero;stroke:none;stroke-width:0.1"
         id="path649" />
      <path
         d="m 304.052,179.329 -1.613,0.932 h -17.744 l -8.747,-5.047 -2.128,0.281 v -2.118 h 0.002 c -0.014,-0.279 0.146,-0.548 0.489,-0.746 l 25.743,-14.863 c 0.386,-0.222 0.922,-0.311 1.467,-0.275 l 2.531,21.836"
         style="fill:#4067b1;fill-opacity:1;fill-rule:nonzero;stroke:none;stroke-width:0.1"
         id="path651" />
      <path
         d="m 274.764,175.37 -0.944,0.125 v -2.118 h 0.002 c -0.014,-0.279 0.146,-0.548 0.489,-0.746 l 0.453,-0.262 v 3.001"
         style="fill:#5f92d3;fill-opacity:1;fill-rule:nonzero;stroke:none;stroke-width:0.1"
         id="path653" />
      <path
         d="m 300.314,157.647 c 0.691,-0.261 1.677,-0.205 2.414,0.15 v 3.604 h -2.414 v -3.754"
         style="fill:#ffffff;fill-opacity:1;fill-rule:nonzero;stroke:none;stroke-width:0.1"
         id="path655" />
      <path
         d="m 300.054,159.885 -25.743,14.863 c -0.728,0.42 -0.637,1.154 0.204,1.641 l 17.53,10.117 c 0.84,0.485 2.113,0.538 2.84,0.117 L 320.63,171.76 c 0.728,-0.42 0.636,-1.155 -0.204,-1.64 l -17.53,-10.118 c -0.841,-0.485 -2.113,-0.538 -2.842,-0.117"
         style="fill:#ffffff;fill-opacity:1;fill-rule:nonzero;stroke:none;stroke-width:0.1"
         id="path657" />
      <path
         d="m 299.619,162.138 -21.405,12.358 c -0.606,0.35 -0.53,0.96 0.17,1.364 l 9.393,5.283 c 0.699,0.403 1.757,0.447 2.362,0.097 l 21.406,-12.358 c 0.606,-0.35 0.53,-0.961 -0.169,-1.364 l -9.394,-5.283 c -0.699,-0.403 -1.757,-0.447 -2.363,-0.097"
         style="fill:#d9effb;fill-opacity:1;fill-rule:nonzero;stroke:none;stroke-width:0.1"
         id="path659" />
      <path
         d="m 293.04,186.993 -0.267,-1.776 c -0.226,-1.513 -0.187,-3.055 0.116,-4.555 l 0.318,-1.564 c 0.178,-0.883 0.877,-1.569 1.763,-1.73 0.692,-0.126 1.346,0.361 1.424,1.06 l 0.425,3.797 c 0,0 0.972,-1.273 1.441,-1.273 0.469,0 -0.525,3.803 -1.585,5.955 -1.062,2.153 -3.635,0.086 -3.635,0.086"
         style="fill:#fab6a9;fill-opacity:1;fill-rule:nonzero;stroke:none;stroke-width:0.1"
         id="path661" />
      <path
         d="m 301.766,215.225 -2.761,-5.467 c -0.654,-1.293 -1.038,-2.705 -1.131,-4.151 l -1.199,-18.7 -3.635,0.086 -1.65,21.001 c -0.05,0.649 -0.019,1.301 0.094,1.942 l 1.885,10.649 8.397,-5.36"
         style="fill:#fab6a9;fill-opacity:1;fill-rule:nonzero;stroke:none;stroke-width:0.1"
         id="path663" />
      <path
         d="m 299.182,158.457 -2.158,2.817 -22.7,13.144 c -0.728,0.421 -1.316,1.55 -1.315,2.52 l 0.019,18.585 -1.305,1.705 1.227,0.709 0.001,-0.001 c 0.235,0.151 0.547,0.147 0.89,-0.051 l 25.726,-14.895 c 0.728,-0.422 1.317,-1.55 1.316,-2.521 l -0.022,-20.24 c -10e-4,-0.546 -0.188,-0.926 -0.481,-1.079 l -1.198,-0.693"
         style="fill:#263c7a;fill-opacity:1;fill-rule:nonzero;stroke:none;stroke-width:0.1"
         id="path665" />
      <path
         d="m 283.485,169.114 -1.613,0.934 -8.853,15.377 0.009,10.098 -1.305,1.705 1.227,0.709 0.001,-0.001 c 0.235,0.151 0.547,0.147 0.89,-0.051 l 25.726,-14.895 c 0.384,-0.222 0.729,-0.643 0.97,-1.134 l -17.052,-12.742"
         style="fill:#4067b1;fill-opacity:1;fill-rule:nonzero;stroke:none;stroke-width:0.1"
         id="path667" />
      <path
         d="m 272.302,196.472 -0.579,0.756 1.227,0.709 0.001,-0.001 c 0.235,0.151 0.547,0.147 0.89,-0.051 l 0.454,-0.263 -1.993,-1.15"
         style="fill:#5f92d3;fill-opacity:1;fill-rule:nonzero;stroke:none;stroke-width:0.1"
         id="path669" />
      <path
         d="m 299.801,182.825 c 0.571,-0.467 1.014,-1.35 1.074,-2.167 l -2.514,-1.451 -1.204,2.092 2.644,1.526"
         style="fill:#2e4b8d;fill-opacity:1;fill-rule:nonzero;stroke:none;stroke-width:0.1"
         id="path671" />
      <path
         d="m 298.342,182.28 -25.726,14.895 c -0.728,0.422 -1.318,-0.024 -1.32,-0.995 l -0.022,-20.24 c -10e-4,-0.971 0.588,-2.099 1.316,-2.521 l 25.725,-14.895 c 0.729,-0.42 1.32,0.025 1.32,0.996 l 0.022,20.24 c 0.001,0.97 -0.588,2.099 -1.315,2.52"
         style="fill:#5f92d3;fill-opacity:1;fill-rule:nonzero;stroke:none;stroke-width:0.1"
         id="path673" />
      <path
         d="m 310.991,178.354 -0.412,-0.854 c -0.475,-0.983 -1.221,-1.811 -2.151,-2.384 l -2.555,-1.575 c -0.795,-0.49 -1.802,-0.53 -2.609,-0.061 l -0.087,0.053 c -0.812,0.509 -0.885,1.675 -0.217,2.363 l 2.671,2.745 c 0,0 -1.501,-1.15 -1.921,-0.687 -0.309,0.339 1.455,1.994 2.808,2.049 1.354,0.054 2.663,1.117 2.663,1.117 l 1.81,-2.766"
         style="fill:#fab6a9;fill-opacity:1;fill-rule:nonzero;stroke:none;stroke-width:0.1"
         id="path675" />
      <path
         d="m 304.219,240.28 c 0,0 -9.789,-10.651 -13.738,-20.423 0,0 3.348,-6.03 11.542,-8.397 8.194,-2.366 2.196,28.82 2.196,28.82"
         style="fill:#5f92d3;fill-opacity:1;fill-rule:nonzero;stroke:none;stroke-width:0.1"
         id="path677" />
      <path
         d="m 300.179,212.092 1.587,15.327 -3.738,-14.359 c 0.666,-0.348 1.387,-0.671 2.151,-0.968"
         style="fill:#4067b1;fill-opacity:1;fill-rule:nonzero;stroke:none;stroke-width:0.1"
         id="path679" />
      <path
         d="m 311.552,242.43 -2.63,0.722 c 0,0 1.255,-1.975 3.088,-2.478 1.834,-0.504 2.12,1.048 2.12,1.048 l -2.578,0.708"
         style="fill:#ffffff;fill-opacity:1;fill-rule:nonzero;stroke:none;stroke-width:0.1"
         id="path681" />
      <path
         d="m 325.602,246.641 c 0,-0.81 -0.656,-1.465 -1.465,-1.465 -0.809,0 -1.465,0.655 -1.465,1.465 0,0.809 0.656,1.464 1.465,1.464 0.809,0 1.465,-0.655 1.465,-1.464"
         style="fill:#ffffff;fill-opacity:1;fill-rule:nonzero;stroke:none;stroke-width:0.1"
         id="path683" />
      <path
         d="m 542.561,249.104 2.647,-5.385 5.384,2.646 -2.647,5.385 z m 1.735,-8.063 -4.412,8.975 8.973,4.412 4.412,-8.975 -8.973,-4.412"
         style="fill:#ee1696;fill-opacity:1;fill-rule:nonzero;stroke:none;stroke-width:0.1"
         id="path685" />
      <path
         d="m 345.422,55.1051 c -4.505,-2.6 -11.809,-2.6 -16.314,0 -4.504,2.6019 -4.505,6.8191 0,9.4187 4.505,2.6012 11.809,2.6012 16.314,0 4.504,-2.6008 4.505,-6.8179 0,-9.4187 z m 9.587,14.9551 c -9.8,5.6578 -25.689,5.6578 -35.489,0 -9.8,-5.659 -9.799,-14.8313 0.001,-20.4903 9.8,-5.6578 25.689,-5.6578 35.489,0 9.799,5.659 9.798,14.8313 -10e-4,20.4903"
         style="fill:#d9effb;fill-opacity:1;fill-rule:nonzero;stroke:none;stroke-width:0.1"
         id="path687" />
      <path
         d="m 315.819,73.4121 8.951,-0.1402 c 0.663,0.8633 1.604,1.6703 2.827,2.3769 4.923,2.8422 12.663,3.0621 18.026,0.6633 l 5.319,5.002 8.191,-0.127 c -0.405,0.2649 -0.821,0.5258 -1.259,0.7789 -11.382,6.5719 -29.836,6.5719 -41.218,0.0012 -2.094,-1.209 -3.798,-2.557 -5.122,-3.9902 l 4.285,-4.5649"
         style="fill:#b41086;fill-opacity:1;fill-rule:nonzero;stroke:none;stroke-width:0.1"
         id="path689" />
      <path
         d="m 359.133,94.1871 v -13 l -8.191,0.127 v 12.9988 l 8.191,-0.1258"
         style="fill:#d1078d;fill-opacity:1;fill-rule:nonzero;stroke:none;stroke-width:0.1"
         id="path691" />
      <path
         d="m 345.623,89.3121 v -13 l 5.319,5.002 v 12.9988 l -5.319,-5.0008"
         style="fill:#b41086;fill-opacity:1;fill-rule:nonzero;stroke:none;stroke-width:0.1"
         id="path693" />
      <path
         d="M 324.77,86.2711 V 73.2719 l 11.776,9.5961 9.077,-6.5559 v 13 l -8.358,4.0539 c 0,0 -11.506,-3.5219 -12.104,-3.6719 -0.599,-0.1492 -0.391,-3.423 -0.391,-3.423"
         style="fill:#b41086;fill-opacity:1;fill-rule:nonzero;stroke:none;stroke-width:0.1"
         id="path695" />
      <path
         d="M 315.819,86.4109 V 73.4121 l 8.951,-0.1402 v 12.9992 l -8.951,0.1398"
         style="fill:#b41086;fill-opacity:1;fill-rule:nonzero;stroke:none;stroke-width:0.1"
         id="path697" />
      <path
         d="M 311.534,90.9762 V 77.977 l 4.285,-4.5649 v 12.9988 l -4.285,4.5653"
         style="fill:#d1078d;fill-opacity:1;fill-rule:nonzero;stroke:none;stroke-width:0.1"
         id="path699" />
      <path
         d="m 315.819,86.4109 8.951,-0.1398 c 0.663,0.8629 1.604,1.6699 2.827,2.3769 4.923,2.8418 12.663,3.0622 18.026,0.6641 l 5.319,5.0008 8.191,-0.1258 c -0.405,0.2641 -0.821,0.525 -1.259,0.7777 -11.382,6.5722 -29.836,6.5722 -41.218,0.0012 -2.094,-1.209 -3.798,-2.557 -5.122,-3.9898 l 4.285,-4.5653"
         style="fill:#ee1696;fill-opacity:1;fill-rule:nonzero;stroke:none;stroke-width:0.1"
         id="path701" />
      <path
         d="M 348.319,87.7121 V 75.7629 l 7.749,1.8562 c 0,0 -0.455,6.9918 -0.62,7.1789 -0.165,0.1872 -7.129,2.9141 -7.129,2.9141"
         style="fill:#5f92d3;fill-opacity:1;fill-rule:nonzero;stroke:none;stroke-width:0.1"
         id="path703" />
      <path
         d="M 342.456,75.7629 V 62.7641 l 0.837,-0.8922 5.463,3.1492 c 0,0 -0.848,9.923 -0.948,10.123 -0.099,0.1989 -5.352,0.6188 -5.352,0.6188"
         style="fill:#263c7a;fill-opacity:1;fill-rule:nonzero;stroke:none;stroke-width:0.1"
         id="path705" />
      <path
         d="m 353.004,79.1191 -4.685,-4.405 c 3.902,-3.0879 3.441,-7.4411 -1.387,-10.2282 -1.322,-0.7629 -2.848,-1.3371 -4.476,-1.7218 l 4.842,-5.159 -4.29,-4.034 c 5.447,0.6289 10.643,2.1598 14.867,4.598 9.784,5.6489 11.148,14.3129 4.11,20.8098 l -8.981,0.1402"
         style="fill:#4067b1;fill-opacity:1;fill-rule:nonzero;stroke:none;stroke-width:0.1"
         id="path707" />
      <path
         d="M 343.008,66.5699 V 53.5711 l 10.622,4.1019 12.775,12.1879 -0.047,13.8039 -13.516,-10.7136 -9.834,-6.3813"
         style="fill:#4067b1;fill-opacity:1;fill-rule:nonzero;stroke:none;stroke-width:0.1"
         id="path709" />
      <path
         d="m 353.004,92.118 -4.685,-4.4059 c 3.902,-3.0871 3.441,-7.4402 -1.387,-10.2269 -1.322,-0.7633 -2.848,-1.3372 -4.476,-1.7223 l 4.842,-5.159 -4.29,-4.034 c 5.447,0.6289 10.643,2.1602 14.867,4.5981 9.784,5.6492 11.148,14.3129 4.11,20.8101 l -8.981,0.1399"
         style="fill:#d9effb;fill-opacity:1;fill-rule:nonzero;stroke:none;stroke-width:0.1"
         id="path711" />
      <path
         d="m 342.972,57.673 -4.267,4.5469 c -3.962,-0.241 -8.07,0.5133 -11.108,2.266 -3.135,1.811 -4.427,4.2832 -3.878,6.6391 l -10.164,0.1578 -3.907,4.1633 c -3.418,-5.866 -1.086,-12.6031 7.008,-17.2762 5.948,-3.4347 13.827,-5.0699 21.618,-4.9148 l 4.698,4.4179"
         style="fill:#4067b1;fill-opacity:1;fill-rule:nonzero;stroke:none;stroke-width:0.1"
         id="path713" />
      <path
         d="M 338.274,66.2539 V 53.2551 l -30.147,16.7058 v 13.0063 l 4.402,-1.7801 25.745,-14.9332"
         style="fill:#4067b1;fill-opacity:1;fill-rule:nonzero;stroke:none;stroke-width:0.1"
         id="path715" />
      <path
         d="M 342.972,70.6719 V 57.673 l -4.698,-4.4179 v 12.9988 l 4.698,4.418"
         style="fill:#263c7a;fill-opacity:1;fill-rule:nonzero;stroke:none;stroke-width:0.1"
         id="path717" />
      <path
         d="m 342.972,70.6719 -4.267,4.5472 c -3.962,-0.241 -8.07,0.5129 -11.108,2.2661 -3.135,1.8109 -4.427,4.2828 -3.878,6.6386 l -10.164,0.1582 -3.907,4.1629 c -3.418,-5.866 -1.086,-12.6027 7.008,-17.2758 5.948,-3.4351 13.827,-5.0703 21.618,-4.9152 l 4.698,4.418"
         style="fill:#5f92d3;fill-opacity:1;fill-rule:nonzero;stroke:none;stroke-width:0.1"
         id="path719" />
      <path
         d="m 275.377,291.312 c -2.482,0 -4.5,-2.019 -4.5,-4.5 0,-2.482 2.018,-4.5 4.5,-4.5 2.481,0 4.5,2.018 4.5,4.5 0,2.481 -2.019,4.5 -4.5,4.5 z m 0,-11 c -3.584,0 -6.5,2.916 -6.5,6.5 0,3.584 2.916,6.5 6.5,6.5 3.584,0 6.5,-2.916 6.5,-6.5 0,-3.584 -2.916,-6.5 -6.5,-6.5"
         style="fill:#5f92d3;fill-opacity:1;fill-rule:nonzero;stroke:none;stroke-width:0.1"
         id="path721" />
      <path
         d="m 259.587,77.2801 c 0,-2.6051 -2.113,-4.718 -4.718,-4.718 -2.607,0 -4.718,2.1129 -4.718,4.718 0,2.6058 2.111,4.7179 4.718,4.7179 2.605,0 4.718,-2.1121 4.718,-4.7179"
         style="fill:#d9effb;fill-opacity:1;fill-rule:nonzero;stroke:none;stroke-width:0.1"
         id="path723" />
      <path
         d="m 500.795,347.259 c 0,-3.105 -2.518,-5.622 -5.622,-5.622 -3.106,0 -5.623,2.517 -5.623,5.622 0,3.105 2.517,5.623 5.623,5.623 3.104,0 5.622,-2.518 5.622,-5.623"
         style="fill:#d9effb;fill-opacity:1;fill-rule:nonzero;stroke:none;stroke-width:0.1"
         id="path725" />
      <path
         d="m 470.392,289.102 -26.739,15.436 c -0.529,0.306 -1.007,0.317 -1.382,0.112 l 0.002,0.017 -2.594,-1.499 c 0,0 1.149,-0.418 1.823,-0.666 V 283.03 c 0,-1.584 0.964,-3.425 2.151,-4.11 l 25.558,-14.756 v -2.284 l 2.62,1.509 -0.015,0.005 c 0.444,0.27 0.728,0.862 0.728,1.714 v 19.882 c 0,1.585 -0.964,3.425 -2.152,4.112"
         style="fill:#d1078d;fill-opacity:1;fill-rule:nonzero;stroke:none;stroke-width:0.1"
         id="path727" />
      <path
         d="m 467.751,261.96 -26.739,15.437 c -1.188,0.686 -2.151,2.527 -2.151,4.111 v 19.881 c 0,1.584 0.963,2.313 2.151,1.628 l 26.739,-15.438 c 1.188,-0.686 2.151,-2.526 2.151,-4.111 v -19.882 c 0,-1.584 -0.963,-2.313 -2.151,-1.626"
         style="fill:#ee1696;fill-opacity:1;fill-rule:nonzero;stroke:none;stroke-width:0.1"
         id="path729" />
      <path
         d="m 450.005,284.249 c 0,-1.15 -0.809,-1.617 -1.805,-1.042 -0.996,0.575 -1.804,1.975 -1.804,3.125 0,1.15 0.808,1.616 1.804,1.041 0.996,-0.575 1.805,-1.974 1.805,-3.124"
         style="fill:#ffffff;fill-opacity:1;fill-rule:nonzero;stroke:none;stroke-width:0.1"
         id="path731" />
      <path
         d="m 455.469,281.093 c 0,-1.151 -0.807,-1.616 -1.803,-1.041 -0.997,0.575 -1.805,1.974 -1.805,3.125 0,1.15 0.808,1.616 1.805,1.041 0.996,-0.575 1.803,-1.974 1.803,-3.125"
         style="fill:#ffffff;fill-opacity:1;fill-rule:nonzero;stroke:none;stroke-width:0.1"
         id="path733" />
      <path
         d="m 460.935,277.937 c 0,-1.15 -0.807,-1.616 -1.804,-1.041 -0.996,0.576 -1.804,1.974 -1.804,3.125 0,1.151 0.808,1.617 1.804,1.041 0.997,-0.575 1.804,-1.974 1.804,-3.125"
         style="fill:#ffffff;fill-opacity:1;fill-rule:nonzero;stroke:none;stroke-width:0.1"
         id="path735" />
      <path
         d="m 340.38,319.472 -26.232,15.144 c -0.519,0.3 -0.988,0.311 -1.356,0.109 l 0.002,0.016 -2.544,-1.47 c 0,0 1.126,-0.41 1.788,-0.653 v -19.102 c 0,-1.555 0.944,-3.36 2.11,-4.034 l 25.072,-14.474 v -2.242 l 2.571,1.48 -0.014,0.005 c 0.434,0.266 0.713,0.847 0.713,1.683 v 19.505 c 0,1.554 -0.945,3.359 -2.11,4.033"
         style="fill:#5f92d3;fill-opacity:1;fill-rule:nonzero;stroke:none;stroke-width:0.1"
         id="path737" />
      <path
         d="m 337.789,292.845 -26.232,15.144 c -1.166,0.673 -2.111,2.479 -2.111,4.034 v 19.504 c 0,1.554 0.945,2.268 2.111,1.595 l 26.232,-15.145 c 1.165,-0.672 2.11,-2.478 2.11,-4.032 V 294.44 c 0,-1.554 -0.945,-2.268 -2.11,-1.595"
         style="fill:#d9effb;fill-opacity:1;fill-rule:nonzero;stroke:none;stroke-width:0.1"
         id="path739" />
      <path
         d="m 320.379,314.711 c 0,-1.129 -0.793,-1.586 -1.771,-1.022 -0.977,0.564 -1.769,1.937 -1.769,3.066 0,1.128 0.792,1.586 1.769,1.022 0.978,-0.565 1.771,-1.937 1.771,-3.066"
         style="fill:#ffffff;fill-opacity:1;fill-rule:nonzero;stroke:none;stroke-width:0.1"
         id="path741" />
      <path
         d="m 325.74,311.615 c 0,-1.129 -0.792,-1.586 -1.77,-1.021 -0.977,0.564 -1.77,1.936 -1.77,3.065 0,1.128 0.793,1.586 1.77,1.022 0.978,-0.565 1.77,-1.937 1.77,-3.066"
         style="fill:#ffffff;fill-opacity:1;fill-rule:nonzero;stroke:none;stroke-width:0.1"
         id="path743" />
      <path
         d="m 331.101,308.52 c 0,-1.129 -0.792,-1.586 -1.769,-1.022 -0.978,0.565 -1.77,1.937 -1.77,3.066 0,1.129 0.792,1.586 1.77,1.021 0.977,-0.564 1.769,-1.937 1.769,-3.065"
         style="fill:#ffffff;fill-opacity:1;fill-rule:nonzero;stroke:none;stroke-width:0.1"
         id="path745" />
    </g>
  </g>
</svg>
