<svg xmlns="http://www.w3.org/2000/svg" viewBox="0 0 1353.67 399.41"><defs><style>.cls-1{fill:#7a9344;}.cls-2{fill:#5d2825;}</style></defs><title>logo-letras</title><g id="Capa_2" data-name="Capa 2"><g id="letras"><path class="cls-1" d="M258.75,275.31c-4.14,17.39-14.08,50.51-19.87,62.93-10.35,2.07-42.64,9.52-70.38,9.52-107.23,0-152.77-66.66-152.77-139.52,0-82,60.45-141.59,157.74-141.59,33.12,0,63.34,7.45,73.28,8.28.82,21.12,3.72,46.37,5.79,63.34l-7.45,1.66C236.81,110.54,226.46,94.8,203.27,84c-11.17-5.38-23.18-7.45-40.15-7.45-62.1,0-88.6,55.47-88.6,123.78,0,79.91,37.26,137,98.53,137,38.5,0,60.86-23.19,79.08-64.59Z" transform="translate(-15.73 -66.65)"/><path class="cls-1" d="M395.78,72.45c49.68,0,89,11.59,114.26,34.77,22.77,21.12,36.43,48.86,36.43,89.43,0,50.09-18.63,86.52-49.26,110.54C467.4,330.37,431.8,341.55,390,341.55H275.72v-6.63c29.39-5,33.12-7.45,33.12-44.71V123.78c0-37.26-3.73-39.74-33.12-44.71V72.45ZM360.17,281.93c.42,33.95,11.18,48,46.79,48,53.4,0,81.55-41,81.55-126.27,0-42.23-12-77.42-32.7-97.71-16.56-17-36.85-23.6-64.17-23.6-16.56,0-24,2.9-28.15,6.21s-4.56,10.35-4.56,24.43Z" transform="translate(-15.73 -66.65)"/><path class="cls-1" d="M710.82,66.65c73.28,0,134.55,57.55,134.55,137.86,0,86.53-60.86,143.25-135.79,143.25-80.32,0-137.45-62.1-137.45-138.69C572.13,138.27,623.47,66.65,710.82,66.65ZM702.54,77c-40.57,0-71.21,40.57-71.21,122.55,0,77.41,31.47,137.86,85.29,137.86,41.4,0,69.55-41.82,69.55-122.13C786.17,128.75,753.46,77,702.54,77Z" transform="translate(-15.73 -66.65)"/><path class="cls-1" d="M1014.28,131.24c-8.7-34.37-28.57-55.07-60.45-55.07-24.84,0-38.91,17-38.91,43.47,0,26.09,14.49,38.51,50.09,59.62s67.48,43.47,67.48,86.94c0,47.61-40.16,81.56-95.22,81.56-20.28,0-39.74-4.14-62.51-9.94-2.49-7.86-8.7-56.72-9.11-63.34l6.62-1.24c9.11,36,33.54,65,71.63,65,28.56,0,41-19.46,41-47.2,0-26.08-15.32-44.71-44.71-62.51-37.26-22.77-67.48-43.89-67.48-86.12,0-42.64,33.53-75.76,88.59-75.76,25.26,0,43.89,5,52.58,5.38,1.66,15.32,4.14,38.09,7,58Z" transform="translate(-15.73 -66.65)"/><path class="cls-1" d="M1229.55,341.55v-6.63c28.57-6.21,29-10.76,21.53-32.29-5-13.66-12-35.19-20.7-58.37h-75.76c-7,19-13.67,37.67-18.63,52.58-9.53,27.73-6.21,31.46,29.8,38.08v6.63H1076v-6.63c27.32-4.55,32.7-9.93,47.19-46.78l85.7-218.59L1220,67.89c26.08,73.28,53,145.32,80.31,217.77,14.49,39.74,18.63,43.88,43.89,49.26v6.63Zm-36-203.69c-12.83,34.36-22.35,62.51-34,93.15h65.83Z" transform="translate(-15.73 -66.65)"/><path class="cls-2" d="M92.31,442.92c-1.3,5.46-4.42,15.87-6.24,19.77-3.25.64-13.39,3-22.1,3-33.67,0-48-20.94-48-43.82,0-25.74,19-44.46,49.53-44.46,10.4,0,19.89,2.34,23,2.6.26,6.63,1.17,14.56,1.82,19.89l-2.34.52c-2.6-9.23-5.85-14.17-13.13-17.55-3.51-1.69-7.28-2.34-12.61-2.34-19.5,0-27.82,17.42-27.82,38.87,0,25.09,11.7,43,30.94,43,12.09,0,19.11-7.28,24.83-20.28Z" transform="translate(-15.73 -66.65)"/><path class="cls-2" d="M130.79,407.17c16.9,0,28,13.39,28,28.21,0,19.9-14.17,29.91-27.56,29.91-21.06,0-29.51-15.35-29.51-28.61A29.13,29.13,0,0,1,130.79,407.17Zm-1.82,3c-6.63,0-10.27,7.28-10.27,22.62,0,17.16,4.94,29.77,12.87,29.77,5.07,0,10.27-3.51,10.27-23.92C141.84,420.56,136.64,410.16,129,410.16Z" transform="translate(-15.73 -66.65)"/><path class="cls-2" d="M230.76,463.72v-2.08c6.24-1.17,6.5-1.94,6.5-10.79V428.49c0-10.4-3.77-12.87-8.71-12.87-2.47,0-5.72.65-9.49,3.77a41.25,41.25,0,0,1,.52,6.11V452c0,7.68,1.17,8.59,6.24,9.62v2.08H198.65v-2.08c6.24-1,6.37-1.81,6.37-9.62V427.45c0-9.36-3.64-11.83-8.71-11.83-3.25,0-5.72,1.17-9,3.64V452c0,7.68.39,8.45,6,9.62v2.08H165.37v-2.08c6.89-1.3,7.41-1.81,7.41-10.79V424.07c0-7.54-.78-8.32-6-10.27v-1.69c6.76-.65,15.08-3.12,20.8-5.2-.13,1.95-.26,6.24-.26,9.36,2.47-1.56,4.29-3.12,6.76-4.81,4.55-3,7.54-4.29,11.05-4.29,6.37,0,10.92,3.77,13.13,9.75,2.73-2.08,5.33-4.16,8.45-6.24s5.85-3.51,9.75-3.51c10.14,0,15.34,7.67,15.34,20.54v24.18c0,8.07.39,8.58,6.24,9.75v2.08Z" transform="translate(-15.73 -66.65)"/><path class="cls-2" d="M264,463.72v-2.08c6.89-1.17,7.15-1.81,7.15-11.83V423.55c0-7.54-.39-8.06-5.73-9.88v-1.82a94.15,94.15,0,0,0,20.81-4.68c-.13,2.73-.26,10.14-.26,15.21v27.43c0,9.63.65,10.4,7.54,11.83v2.08ZM277.56,396a8.19,8.19,0,1,1,8.32-8.19A7.92,7.92,0,0,1,277.56,396Z" transform="translate(-15.73 -66.65)"/><path class="cls-2" d="M361.8,460.73A142.6,142.6,0,0,0,339,466.07c.14-1.3.27-5.46.27-7.81a78.49,78.49,0,0,1-8.72,4.95c-3.51,1.56-5.07,2.08-6.89,2.08-10.4,0-23.53-9-23.53-27.7,0-16.64,14.17-30.42,33.41-30.42a43.79,43.79,0,0,1,5.73.39V387.93c0-8.06-.65-8.84-8.85-10.79v-1.82c8.58-.65,19.25-2.6,24.06-4.29-.26,3.64-.39,10-.39,16.12v60.71c0,8.19.91,9.1,5.07,10.14l2.6.65Zm-22.49-43.42c-2.21-4.68-7.29-6.76-11.06-6.76-4.55,0-11.31,4.29-11.18,22.23.13,16.9,8.19,25,15.47,25a12.66,12.66,0,0,0,6.77-2.21Z" transform="translate(-15.73 -66.65)"/><path class="cls-2" d="M406.77,465.29c-3.25,0-5.59-.91-7.28-2.6a12.18,12.18,0,0,1-3-5.73c-4.16,3.25-10.79,8.33-13.13,8.33a15.59,15.59,0,0,1-15.47-15.48c0-6.11,2.86-9.23,8.71-11.31,7-2.6,16.51-4.94,19.63-7.28v-7.67c0-8.06-4.94-11.83-8.71-11.83a6.21,6.21,0,0,0-5.33,2.86c-.91,1.3-1.82,3.64-3,8.58-.65,2.6-1.56,3.51-3.38,3.51-4.16,0-6.76-3.38-6.76-6,0-1.43,1.17-3,3.77-4.68,6.5-4.16,14.69-7.93,19.63-8.84A18.53,18.53,0,0,1,404,410.81c5.34,4.16,6.63,9.36,6.63,16.9v22.36c0,5.33,2,7.15,4.29,7.15a8.31,8.31,0,0,0,3-.51l.64,2.08ZM396.24,434c-1.95,1-4,1.69-6.76,3.12-4.81,2.6-7,4.94-7,9.49,0,7.15,3.9,10.15,7.67,10.15a8.6,8.6,0,0,0,6-2.08C396.11,447.08,396.24,441.49,396.24,434Z" transform="translate(-15.73 -66.65)"/><path class="cls-2" d="M458.12,423c-2.6-7.41-6.63-13.13-13.78-13.13-3.9,0-7.28,2.73-7.28,7.8,0,5.59,3.9,8.06,9.23,11.05,9.23,5.07,16,9.1,16,18.33,0,12.48-11.7,18.21-21.45,18.21a44.05,44.05,0,0,1-14.56-2.74c-.26-2.59-1.17-10-1.82-15.08l1.69-.39c2.86,8.46,8.58,15.47,16.51,15.47,4.68,0,7.41-3.25,7.41-7.67,0-4-1.3-7.54-9.75-12.48-5.2-3-14.82-8.06-14.82-18.07s7.93-17,20.41-17.16c5.33,0,10,1.3,12.48,1.43a134.78,134.78,0,0,0,1.56,14Z" transform="translate(-15.73 -66.65)"/><path class="cls-2" d="M554.58,460.73a142.31,142.31,0,0,0-22.75,5.34c.13-1.3.26-5.46.26-7.81a78.33,78.33,0,0,1-8.71,4.95c-3.51,1.56-5.07,2.08-6.89,2.08-10.4,0-23.53-9-23.53-27.7,0-16.64,14.17-30.42,33.41-30.42a43.76,43.76,0,0,1,5.72.39V387.93c0-8.06-.65-8.84-8.84-10.79v-1.82c8.58-.65,19.24-2.6,24-4.29-.26,3.64-.39,10-.39,16.12v60.71c0,8.19.91,9.1,5.07,10.14l2.6.65Zm-22.49-43.42c-2.21-4.68-7.28-6.76-11.05-6.76-4.55,0-11.31,4.29-11.18,22.23.13,16.9,8.19,25,15.47,25a12.63,12.63,0,0,0,6.76-2.21Z" transform="translate(-15.73 -66.65)"/><path class="cls-2" d="M608.66,450.85c-7.8,11.06-17.68,14.44-22.36,14.44-16.25,0-25.87-12.88-25.87-27.05a32.5,32.5,0,0,1,9.23-22.88c5.85-6.11,12.35-8.19,18.46-8.19,12.35,0,20.28,9,20.41,19.24,0,2.08-.13,2.86-.65,3-4.16.78-20.67,2-32.89,2.47.13,16,9.23,23.41,18.2,23.41,4.68,0,9.36-1.18,14.3-6Zm-24.18-40.3c-4.81,0-8.58,5.2-9.23,17.55,5.2,0,10.27,0,15.47-.39,1.95-.13,3.12-.26,3.12-1.82C593.84,418.09,590.07,410.55,584.48,410.55Z" transform="translate(-15.73 -66.65)"/><path class="cls-2" d="M682.76,377.4c23,0,42.25,18.07,42.25,43.29,0,27.17-19.11,45-42.64,45-25.22,0-43.16-19.51-43.16-43.56C639.21,399.89,655.33,377.4,682.76,377.4Zm-2.6,3.25c-12.74,0-22.36,12.74-22.36,38.48,0,24.31,9.88,43.29,26.78,43.29,13,0,21.84-13.13,21.84-38.35C706.42,396.9,696.15,380.65,680.16,380.65Z" transform="translate(-15.73 -66.65)"/><path class="cls-2" d="M782.08,451.38c-5.59,7.66-13.52,13.91-21.45,13.91-16.9,0-26-13.27-26-26.66,0-9.49,4.55-17.55,12.48-23.53s15.86-7.93,20.8-7.93c3.38,0,7.8,1,10.27,2.86,1.56,1.3,2.47,2.21,2.47,3.77,0,3-3.25,6.5-5.46,6.5-.52,0-1.17-.13-2.47-1.3-4.94-4.68-10-6.37-14-6.37-4.94,0-9.88,3.12-9.88,18.2,0,17.3,10.4,24.31,18.07,24.31,5.46,0,9.49-1.17,14-5.33Z" transform="translate(-15.73 -66.65)"/><path class="cls-2" d="M835.63,451.38c-5.59,7.66-13.52,13.91-21.45,13.91-16.9,0-26-13.27-26-26.66,0-9.49,4.55-17.55,12.48-23.53s15.86-7.93,20.8-7.93c3.38,0,7.8,1,10.27,2.86,1.56,1.3,2.47,2.21,2.47,3.77,0,3-3.25,6.5-5.46,6.5-.52,0-1.17-.13-2.47-1.3-4.94-4.68-10-6.37-14-6.37-4.94,0-9.88,3.12-9.88,18.2,0,17.3,10.4,24.31,18.07,24.31,5.46,0,9.49-1.17,14-5.33Z" transform="translate(-15.73 -66.65)"/><path class="cls-2" d="M840.7,463.72v-2.08c6.89-1.17,7.15-1.81,7.15-11.83V423.55c0-7.54-.39-8.06-5.72-9.88v-1.82a94.19,94.19,0,0,0,20.8-4.68c-.13,2.73-.26,10.14-.26,15.21v27.43c0,9.63.65,10.4,7.54,11.83v2.08ZM854.22,396a8.19,8.19,0,1,1,8.32-8.19A7.92,7.92,0,0,1,854.22,396Z" transform="translate(-15.73 -66.65)"/><path class="cls-2" d="M938.46,460.73a142.31,142.31,0,0,0-22.75,5.34c.13-1.3.26-5.46.26-7.81a78.33,78.33,0,0,1-8.71,4.95c-3.51,1.56-5.07,2.08-6.89,2.08-10.4,0-23.53-9-23.53-27.7,0-16.64,14.17-30.42,33.41-30.42a43.76,43.76,0,0,1,5.72.39V387.93c0-8.06-.65-8.84-8.84-10.79v-1.82c8.58-.65,19.24-2.6,24-4.29-.26,3.64-.39,10-.39,16.12v60.71c0,8.19.91,9.1,5.07,10.14l2.6.65ZM916,417.31c-2.21-4.68-7.28-6.76-11.05-6.76-4.55,0-11.31,4.29-11.18,22.23.13,16.9,8.19,25,15.47,25a12.63,12.63,0,0,0,6.76-2.21Z" transform="translate(-15.73 -66.65)"/><path class="cls-2" d="M992.54,450.85c-7.8,11.06-17.68,14.44-22.36,14.44-16.25,0-25.87-12.88-25.87-27.05a32.5,32.5,0,0,1,9.23-22.88c5.85-6.11,12.35-8.19,18.46-8.19,12.35,0,20.28,9,20.41,19.24,0,2.08-.13,2.86-.65,3-4.16.78-20.67,2-32.89,2.47.13,16,9.23,23.41,18.2,23.41,4.68,0,9.36-1.18,14.3-6Zm-24.18-40.3c-4.81,0-8.58,5.2-9.23,17.55,5.2,0,10.27,0,15.47-.39,1.95-.13,3.12-.26,3.12-1.82C977.72,418.09,974,410.55,968.36,410.55Z" transform="translate(-15.73 -66.65)"/><path class="cls-2" d="M1033.49,463.72v-2.08c6.24-.91,6.5-2.08,6.5-13V427.71c0-9.36-4.16-12.09-8.71-12.09a14.85,14.85,0,0,0-9.88,3.64V451c0,9.1.65,9.23,6.76,10.66v2.08H999v-2.08c6.75-1.56,7.54-2.2,7.54-12V422.77c0-6.5-.91-7.28-6-9.1V412a100.17,100.17,0,0,0,21.07-5.07c-.13,3.12-.26,6.37-.26,9.49,3.12-2.08,5.2-3.77,7.67-5.33,4-2.73,6.37-3.9,9.88-3.9,10.92,0,15.86,8.06,15.86,19.89v23.79c0,9.11.52,9.62,6.24,10.79v2.08Z" transform="translate(-15.73 -66.65)"/><path class="cls-2" d="M1092.24,463.86a13.93,13.93,0,0,1-4.94,1.43c-8.84,0-14.17-4.42-14.17-15.35V412.76h-7.67l-.26-.78,2.21-3.25h5.72V398.07a90.39,90.39,0,0,0,13.78-9.62l1.43.13c-.13,3.9-.52,12.87-.39,20.15h11.57c.52.78.13,3.12-.52,4h-11v34.45c0,9.62,3.64,11.58,6.76,11.58a14.26,14.26,0,0,0,4.94-1l.65,1.95Z" transform="translate(-15.73 -66.65)"/><path class="cls-2" d="M1152.57,450.85c-7.8,11.06-17.68,14.44-22.36,14.44-16.25,0-25.88-12.88-25.88-27.05a32.5,32.5,0,0,1,9.23-22.88c5.86-6.11,12.36-8.19,18.47-8.19,12.35,0,20.28,9,20.41,19.24,0,2.08-.13,2.86-.65,3-4.16.78-20.67,2-32.89,2.47.13,16,9.23,23.41,18.2,23.41,4.68,0,9.36-1.18,14.3-6Zm-24.18-40.3c-4.81,0-8.59,5.2-9.23,17.55,5.2,0,10.27,0,15.47-.39,1.95-.13,3.12-.26,3.12-1.82C1137.75,418.09,1134,410.55,1128.39,410.55Z" transform="translate(-15.73 -66.65)"/><path class="cls-2" d="M1229.79,397.68c-2.74-10.79-9-17.29-19-17.29-7.8,0-12.22,5.33-12.22,13.65s4.55,12.09,15.73,18.72,21.19,13.65,21.19,27.3c0,14.95-12.61,25.62-29.9,25.62-6.37,0-12.48-1.3-19.63-3.13-.78-2.47-2.73-17.81-2.86-19.89l2.08-.39c2.86,11.31,10.53,20.42,22.49,20.42,9,0,12.87-6.12,12.87-14.83,0-8.19-4.81-14-14-19.63-11.7-7.15-21.19-13.78-21.19-27s10.53-23.79,27.82-23.79c7.93,0,13.78,1.56,16.51,1.69.52,4.81,1.31,12,2.22,18.2Z" transform="translate(-15.73 -66.65)"/><path class="cls-2" d="M1253.18,465.29c-4.68,0-8.32-3.65-8.32-8.72a8.39,8.39,0,1,1,8.32,8.72Z" transform="translate(-15.73 -66.65)"/><path class="cls-2" d="M1308.69,463.72v-2.08c9-1.94,9.1-3.38,6.76-10.14-1.56-4.29-3.77-11.05-6.5-18.33h-23.79c-2.21,6-4.29,11.83-5.85,16.51-3,8.71-2,9.88,9.36,12v2.08h-28.21v-2.08c8.58-1.43,10.27-3.11,14.82-14.68l26.91-68.65,3.51-.52c8.19,23,16.64,45.63,25.22,68.38,4.55,12.48,5.85,13.79,13.78,15.47v2.08Zm-11.31-64c-4,10.79-7,19.63-10.66,29.25h20.67Z" transform="translate(-15.73 -66.65)"/><path class="cls-2" d="M1361,465.29c-4.68,0-8.32-3.65-8.32-8.72a8.39,8.39,0,1,1,8.32,8.72Z" transform="translate(-15.73 -66.65)"/></g></g></svg>