<svg xmlns="http://www.w3.org/2000/svg" viewBox="0 0 496.48 452.66">
  <defs>
    <style>
      .cls-1{fill:#5d2825;}.cls-2{fill:#7a9344;}.cls-3{fill:#592522;stroke:#592522;}.cls-3,.cls-4{stroke-miterlimit:10;}.cls-4{fill:#728e3b;stroke:#728e3b;}
    </style>
  </defs>
  <title>Recurso 1logo-comida</title>
  <g id="Capa_2" data-name="Capa 2">
    <g id="comida">
      <path class="cls-1"
            d="M111.06,70.72c5.78-6.85,16.53.48,12.24,8.34l-.27.48s-21,32.93-.06,69.89a2.39,2.39,0,0,0,.13.21c2.32,3.68,66.69,106.75,20.24,154.54a4.08,4.08,0,0,1-7-2.9c0-13.22-1.64-38.32-12.64-59.88a4.19,4.19,0,0,0-.42-.67c-4.61-6-74.36-98.3-32.77-145.69Z"/>
      <path class="cls-2"
            d="M166.06,2.72c5.78-6.85,16.53.48,12.24,8.34l-.27.48S157.08,44.47,178,81.43a2.39,2.39,0,0,0,.13.21c2.32,3.68,66.69,106.75,20.24,154.54a4.08,4.08,0,0,1-7-2.9c0-13.22-1.64-38.32-12.64-59.88a4.19,4.19,0,0,0-.42-.67c-4.61-6-74.36-98.3-32.77-145.69Z"/>
      <path class="cls-3"
            d="M425,356.54c3.6-1.71,8.94-5,8.09-9.74-.94-5.22-7.3-4.47-11.15-3.68l-.82.37c-45.31,22.39-47.6,23.53-111.27,40.19-.65.17-1.32.32-2,.44-2.52.42-11,2.42-11.88,2.42-33,7-64,15-97,18-49,5-100,7-147-10-10-4-20-13-18-26,1-9,7-16,13-21,23-18,47-30,74.49-39.18l-.48.18c3.6-1.71,8.94-5,8.09-9.74-.94-5.22-7.3-4.47-11.15-3.68l-.18.14C43.1,321.35,2.2,352.91.53,381c-2.37,39.91,119.23,52.83,254.77,28,68.38-12.51,128.74-31.94,170.85-53.17"/>
      <path class="cls-3"
            d="M479.85,317.8a26.46,26.46,0,0,1-14.49,4.49,3.32,3.32,0,0,1-2-.6c-2.75-2.15-.35-9.49,1.5-13l.23-.64a21.29,21.29,0,0,0,3-3.76c6-9.63,3.23-22.25-5.75-29.2A61.12,61.12,0,0,0,446,266.54c-28-9-58-10-87-10-55,1-110,10-164.19,23.44H195c-6.83,1-22.67,2.95-23.47.06-.73-2.65,11.43-8.25,18.06-11.12l.18-.21c11.08-2.81,27.46-6.64,47.48-10.07C355.6,238.35,489.14,251.22,495.7,285,497.85,296,487,312.61,479.85,317.8Z"/>
      <path class="cls-4"
            d="M241.18,282.35c43-.83,256.83-.62-4.8,95.24a.65.65,0,0,0,.29,1.25c37-4.78,242.33-34.33,193.44-96.2a.58.58,0,0,0-.18-.17c-2.61-1.5-53-29.17-188.88-1.4A.65.65,0,0,0,241.18,282.35Z"/>
      <path class="cls-4" d="M99.53,431s127,74,327-55C426.53,376,289.53,444,99.53,431Z"/>
    </g>
  </g>
</svg>
