<svg xmlns="http://www.w3.org/2000/svg" viewBox="0 0 1854.43 519.99"><defs><style>.cls-1{fill:#7a9344;}.cls-2{fill:#5d2825;}.cls-3{fill:#592522;stroke:#592522;}.cls-3,.cls-4{stroke-miterlimit:10;}.cls-4{fill:#728e3b;stroke:#728e3b;}</style></defs><title>logo-full</title><g id="comida"><path class="cls-1" d="M184,250.18c5.78-6.84,16.53.48,12.23,8.34-.08.16-.17.32-.26.48,0,0-21,32.93-.06,69.89l.12.21c2.33,3.69,66.7,106.76,20.25,154.54a4.09,4.09,0,0,1-7-2.89c0-13.23-1.63-38.32-12.64-59.89a4.19,4.19,0,0,0-.42-.67c-4.61-6-74.35-98.29-32.76-145.69Z" transform="translate(-17.97 -247.46)"/><path class="cls-2" d="M129,318.18c5.78-6.84,16.53.48,12.23,8.34-.08.16-.17.32-.26.48,0,0-21,32.93-.06,69.89l.12.21c2.33,3.69,66.7,106.76,20.25,154.54a4.09,4.09,0,0,1-7-2.89c0-13.23-1.63-38.32-12.64-59.89a4.19,4.19,0,0,0-.42-.67c-4.61-6-74.35-98.29-32.76-145.69Z" transform="translate(-17.97 -247.46)"/><path class="cls-3" d="M443,604c3.6-1.71,8.94-5,8.09-9.73-.94-5.22-7.3-4.47-11.15-3.69l-.82.37c-45.31,22.39-47.6,23.53-111.27,40.2-.65.17-1.32.32-2,.43-2.51.43-11,2.42-11.87,2.42-33,7-64,15-97,18-49,5-100,7-147-10-10-4-20-13-18-26,1-9,7-16,13-21,23-18,47-30,74.48-39.18L139,556c3.6-1.71,8.94-5,8.09-9.73-.94-5.22-7.3-4.47-11.15-3.69l-.18.14c-74.7,26.1-115.6,57.65-117.27,85.78-2.37,39.92,119.23,52.84,254.77,28C341.64,644,402,624.6,444.11,603.37" transform="translate(-17.97 -247.46)"/><path class="cls-3" d="M497.82,565.26a26.38,26.38,0,0,1-14.5,4.49,3.19,3.19,0,0,1-2-.6c-2.74-2.14-.34-9.48,1.5-13l.23-.64a21,21,0,0,0,3-3.76c6-9.62,3.22-22.25-5.75-29.2A61.72,61.72,0,0,0,464,514c-28-9-58-10-87-10-55,1-110,10-164.19,23.45H213c-6.82,1-22.66,3-23.46.06-.73-2.65,11.43-8.25,18.05-11.12l.19-.2c11.07-2.82,27.46-6.65,47.47-10.08,118.35-20.29,251.9-7.41,258.46,26.32C515.82,543.48,505,560.07,497.82,565.26Z" transform="translate(-17.97 -247.46)"/><path class="cls-4" d="M259.14,529.82c43-.83,256.84-.63-4.8,95.23a.65.65,0,0,0,.29,1.25c37-4.78,242.34-34.33,193.45-96.2a.49.49,0,0,0-.19-.16c-2.6-1.51-53-29.17-188.87-1.41A.65.65,0,0,0,259.14,529.82Z" transform="translate(-17.97 -247.46)"/><path class="cls-4" d="M117.5,678.5s127,74,327-55C444.5,623.5,307.5,691.5,117.5,678.5Z" transform="translate(-17.97 -247.46)"/></g><g id="letras"><path class="cls-1" d="M761.75,576.7c-4.14,17.39-14.08,50.51-19.87,62.93-10.35,2.07-42.64,9.52-70.38,9.52-107.23,0-152.77-66.65-152.77-139.52,0-82,60.45-141.59,157.74-141.59,33.12,0,63.34,7.46,73.28,8.28.82,21.12,3.72,46.37,5.79,63.35l-7.45,1.65c-8.28-29.39-18.63-45.12-41.82-55.89-11.17-5.38-23.18-7.45-40.15-7.45-62.1,0-88.6,55.48-88.6,123.79,0,79.9,37.26,137,98.53,137,38.5,0,60.86-23.18,79.08-64.58Z" transform="translate(-17.97 -247.46)"/><path class="cls-1" d="M898.78,373.84c49.68,0,89,11.59,114.26,34.78,22.77,21.11,36.43,48.85,36.43,89.42,0,50.09-18.63,86.53-49.26,110.54C970.4,631.76,934.8,642.94,893,642.94H778.72v-6.62c29.39-5,33.12-7.45,33.12-44.71V425.18c0-37.26-3.73-39.75-33.12-44.72v-6.62ZM863.17,583.33c.42,33.94,11.18,48,46.79,48,53.4,0,81.55-41,81.55-126.27,0-42.23-12-77.42-32.7-97.71-16.56-17-36.85-23.59-64.17-23.59-16.56,0-24,2.89-28.15,6.21s-4.56,10.35-4.56,24.42Z" transform="translate(-17.97 -247.46)"/><path class="cls-1" d="M1213.82,368c73.28,0,134.55,57.55,134.55,137.87,0,86.52-60.86,143.24-135.79,143.24-80.32,0-137.45-62.1-137.45-138.69C1075.13,439.67,1126.47,368,1213.82,368Zm-8.28,10.35c-40.57,0-71.21,40.58-71.21,122.55,0,77.42,31.47,137.86,85.29,137.86,41.4,0,69.55-41.81,69.55-122.13C1289.17,430.14,1256.46,378.39,1205.54,378.39Z" transform="translate(-17.97 -247.46)"/><path class="cls-1" d="M1517.28,432.63c-8.7-34.36-28.57-55.06-60.45-55.06-24.84,0-38.91,17-38.91,43.47,0,26.08,14.49,38.5,50.09,59.61s67.48,43.47,67.48,86.94c0,47.61-40.16,81.56-95.22,81.56-20.28,0-39.74-4.14-62.51-9.94-2.49-7.86-8.7-56.71-9.11-63.34l6.62-1.24c9.11,36,33.54,65,71.63,65,28.56,0,41-19.46,41-47.2,0-26.08-15.32-44.71-44.71-62.51-37.26-22.77-67.48-43.89-67.48-86.11,0-42.65,33.53-75.77,88.59-75.77,25.26,0,43.89,5,52.58,5.39,1.66,15.31,4.14,38.08,7,58Z" transform="translate(-17.97 -247.46)"/><path class="cls-1" d="M1732.55,642.94v-6.62c28.57-6.21,29-10.77,21.53-32.29-5-13.67-12-35.2-20.7-58.38h-75.76c-7,19.05-13.67,37.68-18.63,52.58-9.53,27.74-6.21,31.46,29.8,38.09v6.62H1579v-6.62c27.32-4.56,32.7-9.94,47.19-46.78l85.7-218.6,11.18-1.65c26.08,73.27,53,145.31,80.31,217.76,14.49,39.74,18.63,43.89,43.89,49.27v6.62Zm-36-203.69c-12.83,34.36-22.35,62.52-34,93.15h65.83Z" transform="translate(-17.97 -247.46)"/><path class="cls-2" d="M595.31,744.32c-1.3,5.46-4.42,15.86-6.24,19.76-3.25.65-13.39,3-22.1,3-33.67,0-48-20.93-48-43.81,0-25.74,19-44.47,49.53-44.47,10.4,0,19.89,2.34,23,2.6.26,6.64,1.17,14.57,1.82,19.9l-2.34.51c-2.6-9.22-5.85-14.17-13.13-17.55-3.51-1.69-7.28-2.34-12.61-2.34-19.5,0-27.82,17.42-27.82,38.88,0,25.09,11.7,43,30.94,43,12.09,0,19.11-7.28,24.83-20.28Z" transform="translate(-17.97 -247.46)"/><path class="cls-2" d="M633.79,708.57c16.9,0,28,13.39,28,28.21,0,19.89-14.17,29.9-27.56,29.9-21.06,0-29.51-15.34-29.51-28.6A29.13,29.13,0,0,1,633.79,708.57Zm-1.82,3c-6.63,0-10.27,7.28-10.27,22.62,0,17.16,4.94,29.77,12.87,29.77,5.07,0,10.27-3.51,10.27-23.92C644.84,722,639.64,711.56,632,711.56Z" transform="translate(-17.97 -247.46)"/><path class="cls-2" d="M733.76,765.12V763c6.24-1.17,6.5-1.95,6.5-10.79V729.89c0-10.4-3.77-12.87-8.71-12.87-2.47,0-5.72.65-9.49,3.77a41.25,41.25,0,0,1,.52,6.11v26.52c0,7.67,1.17,8.58,6.24,9.62v2.08H701.65V763c6.24-1,6.37-1.82,6.37-9.62V728.85c0-9.36-3.64-11.83-8.71-11.83-3.25,0-5.72,1.17-9,3.64v32.76c0,7.67.39,8.45,6,9.62v2.08h-28V763c6.89-1.3,7.41-1.82,7.41-10.79V725.47c0-7.54-.78-8.32-6-10.27v-1.69c6.76-.65,15.08-3.12,20.8-5.2-.13,2-.26,6.24-.26,9.36,2.47-1.56,4.29-3.12,6.76-4.81,4.55-3,7.54-4.29,11-4.29,6.37,0,10.92,3.77,13.13,9.75,2.73-2.08,5.33-4.16,8.45-6.24s5.85-3.51,9.75-3.51c10.14,0,15.34,7.67,15.34,20.54v24.18c0,8.06.39,8.58,6.24,9.75v2.08Z" transform="translate(-17.97 -247.46)"/><path class="cls-2" d="M767,765.12V763c6.89-1.17,7.15-1.82,7.15-11.83V725c0-7.54-.39-8.06-5.73-9.88v-1.82a94.15,94.15,0,0,0,20.81-4.68c-.13,2.73-.26,10.14-.26,15.21v27.43c0,9.62.65,10.4,7.54,11.83v2.08Zm13.52-67.74a8.19,8.19,0,1,1,8.32-8.18A7.91,7.91,0,0,1,780.56,697.38Z" transform="translate(-17.97 -247.46)"/><path class="cls-2" d="M864.8,762.13A142.21,142.21,0,0,0,842,767.46c.14-1.3.27-5.46.27-7.8a80.07,80.07,0,0,1-8.72,4.94c-3.51,1.56-5.07,2.08-6.89,2.08-10.4,0-23.53-9-23.53-27.69,0-16.64,14.17-30.42,33.41-30.42a43.79,43.79,0,0,1,5.73.39V689.32c0-8.06-.65-8.84-8.85-10.79v-1.82c8.58-.65,19.25-2.6,24.06-4.29-.26,3.64-.39,10-.39,16.12v60.72c0,8.19.91,9.1,5.07,10.14l2.6.65Zm-22.49-43.42C840.1,714,835,712,831.25,712c-4.55,0-11.31,4.29-11.18,22.23.13,16.9,8.19,25,15.47,25a12.57,12.57,0,0,0,6.77-2.21Z" transform="translate(-17.97 -247.46)"/><path class="cls-2" d="M909.77,766.68c-3.25,0-5.59-.91-7.28-2.6a12.1,12.1,0,0,1-3-5.72c-4.16,3.25-10.79,8.32-13.13,8.32a15.58,15.58,0,0,1-15.47-15.47c0-6.11,2.86-9.23,8.71-11.31,7-2.6,16.51-4.94,19.63-7.28V725c0-8.06-4.94-11.83-8.71-11.83A6.21,6.21,0,0,0,885.2,716c-.91,1.3-1.82,3.64-3,8.58-.65,2.6-1.56,3.51-3.38,3.51-4.16,0-6.76-3.38-6.76-6,0-1.43,1.17-3,3.77-4.68,6.5-4.16,14.69-7.93,19.63-8.84A18.53,18.53,0,0,1,907,712.21c5.34,4.16,6.63,9.36,6.63,16.9v22.36c0,5.33,2,7.15,4.29,7.15a8.11,8.11,0,0,0,3-.52l.64,2.08Zm-10.53-31.33c-2,1-4,1.69-6.76,3.12-4.81,2.6-7,4.94-7,9.49,0,7.15,3.9,10.14,7.67,10.14a8.6,8.6,0,0,0,6-2.08C899.11,748.48,899.24,742.89,899.24,735.35Z" transform="translate(-17.97 -247.46)"/><path class="cls-2" d="M961.12,724.43c-2.6-7.41-6.63-13.13-13.78-13.13-3.9,0-7.28,2.73-7.28,7.8,0,5.59,3.9,8.06,9.23,11,9.23,5.07,16,9.1,16,18.33,0,12.48-11.7,18.2-21.45,18.2A44.11,44.11,0,0,1,929.27,764c-.26-2.6-1.17-10-1.82-15.08l1.69-.39C932,756.93,937.72,764,945.65,764c4.68,0,7.41-3.25,7.41-7.67,0-4-1.3-7.54-9.75-12.48-5.2-3-14.82-8.06-14.82-18.07s7.93-17,20.41-17.16c5.33,0,10,1.3,12.48,1.43a134.78,134.78,0,0,0,1.56,14Z" transform="translate(-17.97 -247.46)"/><path class="cls-2" d="M1057.58,762.13a141.92,141.92,0,0,0-22.75,5.33c.13-1.3.26-5.46.26-7.8a79.91,79.91,0,0,1-8.71,4.94c-3.51,1.56-5.07,2.08-6.89,2.08-10.4,0-23.53-9-23.53-27.69,0-16.64,14.17-30.42,33.41-30.42a43.76,43.76,0,0,1,5.72.39V689.32c0-8.06-.65-8.84-8.84-10.79v-1.82c8.58-.65,19.24-2.6,24-4.29-.26,3.64-.39,10-.39,16.12v60.72c0,8.19.91,9.1,5.07,10.14l2.6.65Zm-22.49-43.42c-2.21-4.68-7.28-6.76-11-6.76-4.55,0-11.31,4.29-11.18,22.23.13,16.9,8.19,25,15.47,25a12.54,12.54,0,0,0,6.76-2.21Z" transform="translate(-17.97 -247.46)"/><path class="cls-2" d="M1111.66,752.25c-7.8,11-17.68,14.43-22.36,14.43-16.25,0-25.87-12.87-25.87-27a32.5,32.5,0,0,1,9.23-22.88c5.85-6.11,12.35-8.19,18.46-8.19,12.35,0,20.28,9,20.41,19.24,0,2.08-.13,2.86-.65,3-4.16.78-20.67,2-32.89,2.47.13,16,9.23,23.4,18.2,23.4,4.68,0,9.36-1.17,14.3-6ZM1087.48,712c-4.81,0-8.58,5.2-9.23,17.55,5.2,0,10.27,0,15.47-.39,2-.13,3.12-.26,3.12-1.82C1096.84,719.49,1093.07,712,1087.48,712Z" transform="translate(-17.97 -247.46)"/><path class="cls-2" d="M1185.76,678.79c23,0,42.25,18.08,42.25,43.3,0,27.17-19.11,45-42.64,45-25.22,0-43.16-19.5-43.16-43.55C1142.21,701.29,1158.33,678.79,1185.76,678.79Zm-2.6,3.25c-12.74,0-22.36,12.75-22.36,38.49,0,24.31,9.88,43.29,26.78,43.29,13,0,21.84-13.13,21.84-38.35C1209.42,698.29,1199.15,682,1183.16,682Z" transform="translate(-17.97 -247.46)"/><path class="cls-2" d="M1285.08,752.77c-5.59,7.67-13.52,13.91-21.45,13.91-16.9,0-26-13.26-26-26.65,0-9.49,4.55-17.55,12.48-23.53s15.86-7.93,20.8-7.93c3.38,0,7.8,1,10.27,2.86,1.56,1.3,2.47,2.21,2.47,3.77,0,3-3.25,6.5-5.46,6.5-.52,0-1.17-.13-2.47-1.3-4.94-4.68-10-6.37-14-6.37-4.94,0-9.88,3.12-9.88,18.2,0,17.29,10.4,24.31,18.07,24.31,5.46,0,9.49-1.17,14-5.33Z" transform="translate(-17.97 -247.46)"/><path class="cls-2" d="M1338.63,752.77c-5.59,7.67-13.52,13.91-21.45,13.91-16.9,0-26-13.26-26-26.65,0-9.49,4.55-17.55,12.48-23.53s15.86-7.93,20.8-7.93c3.38,0,7.8,1,10.27,2.86,1.56,1.3,2.47,2.21,2.47,3.77,0,3-3.25,6.5-5.46,6.5-.52,0-1.17-.13-2.47-1.3-4.94-4.68-10-6.37-14-6.37-4.94,0-9.88,3.12-9.88,18.2,0,17.29,10.4,24.31,18.07,24.31,5.46,0,9.49-1.17,14-5.33Z" transform="translate(-17.97 -247.46)"/><path class="cls-2" d="M1343.7,765.12V763c6.89-1.17,7.15-1.82,7.15-11.83V725c0-7.54-.39-8.06-5.72-9.88v-1.82a94.19,94.19,0,0,0,20.8-4.68c-.13,2.73-.26,10.14-.26,15.21v27.43c0,9.62.65,10.4,7.54,11.83v2.08Zm13.52-67.74a8.19,8.19,0,1,1,8.32-8.18A7.91,7.91,0,0,1,1357.22,697.38Z" transform="translate(-17.97 -247.46)"/><path class="cls-2" d="M1441.46,762.13a141.92,141.92,0,0,0-22.75,5.33c.13-1.3.26-5.46.26-7.8a79.91,79.91,0,0,1-8.71,4.94c-3.51,1.56-5.07,2.08-6.89,2.08-10.4,0-23.53-9-23.53-27.69,0-16.64,14.17-30.42,33.41-30.42a43.76,43.76,0,0,1,5.72.39V689.32c0-8.06-.65-8.84-8.84-10.79v-1.82c8.58-.65,19.24-2.6,24-4.29-.26,3.64-.39,10-.39,16.12v60.72c0,8.19.91,9.1,5.07,10.14l2.6.65ZM1419,718.71c-2.21-4.68-7.28-6.76-11-6.76-4.55,0-11.31,4.29-11.18,22.23.13,16.9,8.19,25,15.47,25a12.54,12.54,0,0,0,6.76-2.21Z" transform="translate(-17.97 -247.46)"/><path class="cls-2" d="M1495.54,752.25c-7.8,11-17.68,14.43-22.36,14.43-16.25,0-25.87-12.87-25.87-27a32.5,32.5,0,0,1,9.23-22.88c5.85-6.11,12.35-8.19,18.46-8.19,12.35,0,20.28,9,20.41,19.24,0,2.08-.13,2.86-.65,3-4.16.78-20.67,2-32.89,2.47.13,16,9.23,23.4,18.2,23.4,4.68,0,9.36-1.17,14.3-6ZM1471.36,712c-4.81,0-8.58,5.2-9.23,17.55,5.2,0,10.27,0,15.47-.39,2-.13,3.12-.26,3.12-1.82C1480.72,719.49,1477,712,1471.36,712Z" transform="translate(-17.97 -247.46)"/><path class="cls-2" d="M1536.49,765.12V763c6.24-.91,6.5-2.08,6.5-13V729.11c0-9.36-4.16-12.09-8.71-12.09a14.85,14.85,0,0,0-9.88,3.64v31.72c0,9.1.65,9.23,6.76,10.66v2.08H1502V763c6.75-1.56,7.54-2.21,7.54-12V724.17c0-6.5-.91-7.28-6-9.1v-1.69a100.17,100.17,0,0,0,21.07-5.07c-.13,3.12-.26,6.37-.26,9.49,3.12-2.08,5.2-3.77,7.67-5.33,4-2.73,6.37-3.9,9.88-3.9,10.92,0,15.86,8.06,15.86,19.89v23.79c0,9.1.52,9.62,6.24,10.79v2.08Z" transform="translate(-17.97 -247.46)"/><path class="cls-2" d="M1595.24,765.25a13.93,13.93,0,0,1-4.94,1.43c-8.84,0-14.17-4.42-14.17-15.34V714.16h-7.67l-.26-.78,2.21-3.25h5.72V699.46a89.68,89.68,0,0,0,13.78-9.62l1.43.13c-.13,3.91-.52,12.88-.39,20.16h11.57c.52.78.13,3.12-.52,4h-11v34.45c0,9.62,3.64,11.57,6.76,11.57a14,14,0,0,0,4.94-1l.65,2Z" transform="translate(-17.97 -247.46)"/><path class="cls-2" d="M1655.57,752.25c-7.8,11-17.68,14.43-22.36,14.43-16.25,0-25.88-12.87-25.88-27a32.5,32.5,0,0,1,9.23-22.88c5.86-6.11,12.36-8.19,18.47-8.19,12.35,0,20.28,9,20.41,19.24,0,2.08-.13,2.86-.65,3-4.16.78-20.67,2-32.89,2.47.13,16,9.23,23.4,18.2,23.4,4.68,0,9.36-1.17,14.3-6ZM1631.39,712c-4.81,0-8.59,5.2-9.23,17.55,5.2,0,10.27,0,15.47-.39,1.95-.13,3.12-.26,3.12-1.82C1640.75,719.49,1637,712,1631.39,712Z" transform="translate(-17.97 -247.46)"/><path class="cls-2" d="M1732.79,699.08c-2.74-10.79-9-17.29-19-17.29-7.8,0-12.22,5.33-12.22,13.65s4.55,12.09,15.73,18.72,21.19,13.65,21.19,27.3c0,14.95-12.61,25.61-29.9,25.61-6.37,0-12.48-1.3-19.63-3.12-.78-2.47-2.73-17.81-2.86-19.89l2.08-.39c2.86,11.31,10.53,20.41,22.49,20.41,9,0,12.87-6.11,12.87-14.82,0-8.19-4.81-14-14-19.63-11.7-7.15-21.19-13.78-21.19-27s10.53-23.8,27.82-23.8c7.93,0,13.78,1.56,16.51,1.69.52,4.81,1.31,12,2.22,18.21Z" transform="translate(-17.97 -247.46)"/><path class="cls-2" d="M1756.18,766.68c-4.68,0-8.32-3.64-8.32-8.71a8.39,8.39,0,1,1,8.32,8.71Z" transform="translate(-17.97 -247.46)"/><path class="cls-2" d="M1811.69,765.12V763c9-1.95,9.1-3.38,6.76-10.14-1.56-4.29-3.77-11-6.5-18.33h-23.79c-2.21,6-4.29,11.83-5.85,16.51-3,8.71-2,9.88,9.36,12v2.08h-28.21V763c8.58-1.43,10.27-3.12,14.82-14.69l26.91-68.64,3.51-.53c8.19,23,16.64,45.64,25.22,68.39,4.55,12.48,5.85,13.78,13.78,15.47v2.08Zm-11.31-64c-4,10.79-7,19.63-10.66,29.25h20.67Z" transform="translate(-17.97 -247.46)"/><path class="cls-2" d="M1864,766.68c-4.68,0-8.32-3.64-8.32-8.71a8.39,8.39,0,1,1,8.32,8.71Z" transform="translate(-17.97 -247.46)"/></g></svg>