<svg xmlns="http://www.w3.org/2000/svg" viewBox="0 0 1328.5 281.11"><defs><style>.cls-1{fill:#7a9344;}</style></defs><title>logo-letras-cdosa</title><g id="Capa_2" data-name="Capa 2"><g id="letras"><path class="cls-1" d="M258.75,275.31c-4.14,17.39-14.08,50.51-19.87,62.93-10.35,2.07-42.64,9.52-70.38,9.52-107.23,0-152.77-66.66-152.77-139.52,0-82,60.45-141.59,157.74-141.59,33.12,0,63.34,7.45,73.28,8.28.82,21.12,3.72,46.37,5.79,63.34l-7.45,1.66C236.81,110.54,226.46,94.8,203.27,84c-11.17-5.38-23.18-7.45-40.15-7.45-62.1,0-88.6,55.47-88.6,123.78,0,79.91,37.26,137,98.53,137,38.5,0,60.86-23.19,79.08-64.59Z" transform="translate(-15.73 -66.65)"/><path class="cls-1" d="M395.78,72.45c49.68,0,89,11.59,114.26,34.77,22.77,21.12,36.43,48.86,36.43,89.43,0,50.09-18.63,86.52-49.26,110.54C467.4,330.37,431.8,341.55,390,341.55H275.72v-6.63c29.39-5,33.12-7.45,33.12-44.71V123.78c0-37.26-3.73-39.74-33.12-44.71V72.45ZM360.17,281.93c.42,33.95,11.18,48,46.79,48,53.4,0,81.55-41,81.55-126.27,0-42.23-12-77.42-32.7-97.71-16.56-17-36.85-23.6-64.17-23.6-16.56,0-24,2.9-28.15,6.21s-4.56,10.35-4.56,24.43Z" transform="translate(-15.73 -66.65)"/><path class="cls-1" d="M710.82,66.65c73.28,0,134.55,57.55,134.55,137.86,0,86.53-60.86,143.25-135.79,143.25-80.32,0-137.45-62.1-137.45-138.69C572.13,138.27,623.47,66.65,710.82,66.65ZM702.54,77c-40.57,0-71.21,40.57-71.21,122.55,0,77.41,31.47,137.86,85.29,137.86,41.4,0,69.55-41.82,69.55-122.13C786.17,128.75,753.46,77,702.54,77Z" transform="translate(-15.73 -66.65)"/><path class="cls-1" d="M1014.28,131.24c-8.7-34.37-28.57-55.07-60.45-55.07-24.84,0-38.91,17-38.91,43.47,0,26.09,14.49,38.51,50.09,59.62s67.48,43.47,67.48,86.94c0,47.61-40.16,81.56-95.22,81.56-20.28,0-39.74-4.14-62.51-9.94-2.49-7.86-8.7-56.72-9.11-63.34l6.62-1.24c9.11,36,33.54,65,71.63,65,28.56,0,41-19.46,41-47.2,0-26.08-15.32-44.71-44.71-62.51-37.26-22.77-67.48-43.89-67.48-86.12,0-42.64,33.53-75.76,88.59-75.76,25.26,0,43.89,5,52.58,5.38,1.66,15.32,4.14,38.09,7,58Z" transform="translate(-15.73 -66.65)"/><path class="cls-1" d="M1229.55,341.55v-6.63c28.57-6.21,29-10.76,21.53-32.29-5-13.66-12-35.19-20.7-58.37h-75.76c-7,19-13.67,37.67-18.63,52.58-9.53,27.73-6.21,31.46,29.8,38.08v6.63H1076v-6.63c27.32-4.55,32.7-9.93,47.19-46.78l85.7-218.59L1220,67.89c26.08,73.28,53,145.32,80.31,217.77,14.49,39.74,18.63,43.88,43.89,49.26v6.63Zm-36-203.69c-12.83,34.36-22.35,62.51-34,93.15h65.83Z" transform="translate(-15.73 -66.65)"/></g></g></svg>